<?xml version="1.0" standalone="no"?>
<!DOCTYPE svg PUBLIC "-//W3C//DTD SVG 20010904//EN"
 "http://www.w3.org/TR/2001/REC-SVG-20010904/DTD/svg10.dtd">
<svg version="1.0" xmlns="http://www.w3.org/2000/svg"
 width="700.000000pt" height="700.000000pt" viewBox="0 0 700.000000 700.000000"
 preserveAspectRatio="xMidYMid meet">
<metadata>
Created by potrace 1.11, written by Peter Selinger 2001-2013
</metadata>
<g transform="translate(0.000000,700.000000) scale(0.100000,-0.100000)"
fill="#000000" stroke="none">
<path d="M3480 6365 c-12 -28 -30 -70 -40 -95 -17 -38 -116 -279 -265 -645
-234 -574 -329 -805 -340 -830 -7 -16 -39 -93 -70 -170 -31 -77 -63 -153 -70
-170 -7 -16 -58 -140 -113 -275 -90 -220 -693 -1691 -959 -2340 -57 -140 -134
-327 -170 -415 -36 -88 -71 -173 -79 -190 -7 -16 -24 -58 -37 -91 l-25 -62
102 -101 c56 -55 104 -101 108 -101 6 0 343 147 488 212 25 12 180 80 345 153
165 73 490 216 722 319 l422 186 158 -69 c87 -38 265 -117 397 -175 131 -58
240 -106 242 -106 1 0 35 -15 76 -34 40 -18 107 -48 148 -66 41 -18 100 -43
130 -57 194 -88 822 -363 828 -363 4 0 53 46 108 103 l102 102 -104 250 c-58
138 -107 257 -111 265 -3 8 -91 224 -196 480 -104 256 -204 501 -222 545 -54
134 -85 209 -95 230 -5 11 -55 133 -111 270 -56 138 -128 313 -159 390 -111
272 -279 682 -338 825 -117 284 -385 938 -458 1115 -40 99 -145 355 -233 570
l-160 390 -21 -50z m47 -1552 c9 -13 12 -23 9 -23 -4 0 1 -11 10 -25 9 -14 14
-25 10 -25 -3 0 3 -17 14 -37 11 -21 20 -43 20 -49 0 -7 9 -29 19 -51 40 -79
52 -115 47 -129 -3 -8 -2 -13 3 -10 4 3 13 -6 20 -20 6 -14 8 -23 3 -20 -4 2
-8 -5 -9 -17 0 -12 1 -16 4 -9 3 6 9 12 14 12 6 0 8 -4 4 -9 -3 -5 -1 -12 5
-16 5 -3 10 -12 10 -18 0 -7 -4 -6 -10 3 -6 9 -10 10 -10 3 0 -7 6 -16 14 -20
14 -9 40 -53 31 -53 -3 0 3 -17 14 -39 11 -21 17 -41 14 -45 -4 -3 0 -6 8 -6
11 0 11 -2 -1 -10 -13 -8 -12 -10 3 -10 10 0 17 -8 17 -18 0 -10 3 -22 8 -26
4 -4 7 -11 8 -14 1 -8 22 -59 36 -85 6 -13 5 -23 -3 -33 -13 -16 4 -44 27 -44
8 0 14 -3 14 -7 0 -5 3 -18 6 -30 4 -15 1 -23 -13 -26 -12 -4 -10 -5 6 -4 19
2 26 -4 32 -26 6 -21 4 -27 -5 -24 -7 3 -13 -1 -13 -8 0 -7 8 -10 16 -8 12 3
21 -7 30 -34 8 -21 14 -39 13 -40 -1 -2 9 -23 22 -48 14 -25 20 -45 13 -45 -6
0 -3 -6 6 -13 10 -6 18 -26 20 -44 1 -17 5 -29 10 -26 6 4 9 -5 6 -23 0 -4 3
-10 8 -13 13 -8 45 -91 35 -91 -4 0 -1 -4 6 -9 7 -4 14 -14 15 -22 2 -8 6 -20
11 -27 4 -7 5 -16 2 -19 -3 -3 0 -11 8 -17 10 -9 138 -311 142 -338 1 -5 2
-10 3 -13 0 -3 1 -7 1 -10 -1 -3 6 -13 15 -21 13 -14 20 -35 16 -56 0 -5 3 -8
7 -8 4 0 8 -9 9 -20 1 -13 -2 -18 -10 -14 -7 4 -8 3 -4 -2 5 -5 14 -9 20 -9 7
0 13 -12 15 -27 2 -16 8 -28 14 -28 5 0 8 -7 4 -15 -3 -8 -2 -15 3 -15 4 0 13
-11 19 -24 9 -21 8 -25 -6 -29 -14 -4 -13 -5 3 -6 14 -1 24 -12 31 -36 6 -19
8 -32 4 -30 -3 2 -6 -5 -7 -15 -1 -11 2 -22 8 -25 5 -3 6 1 3 9 -3 9 -2 16 2
16 5 0 17 -19 26 -42 14 -31 15 -44 7 -55 -9 -10 -9 -12 2 -8 20 7 72 -118 55
-135 -8 -8 -6 -9 9 -4 11 4 17 4 13 -1 -4 -4 -3 -14 3 -21 6 -8 9 -20 5 -29
-3 -8 0 -14 6 -12 6 1 12 -3 15 -9 2 -7 -7 -11 -26 -9 -16 1 -35 -1 -42 -6 -8
-5 1 -7 21 -5 43 4 60 -2 60 -19 0 -7 7 -26 15 -41 8 -16 15 -37 15 -46 0 -10
5 -18 10 -18 6 0 10 -6 10 -12 0 -7 7 -26 15 -42 8 -15 12 -32 9 -37 -3 -5 0
-9 6 -9 7 0 9 -7 6 -16 -3 -8 -2 -13 3 -10 13 8 20 -31 8 -43 -7 -7 -5 -12 6
-17 21 -8 52 -67 37 -72 -5 -2 -10 -8 -10 -13 0 -6 4 -8 10 -4 5 3 18 -12 28
-34 l19 -39 -31 13 c-17 8 -30 20 -30 29 1 8 -4 12 -12 9 -8 -3 -11 -9 -8 -14
3 -5 -2 -6 -9 -3 -16 6 -17 19 -3 44 4 8 -1 5 -11 -6 l-19 -22 -48 22 c-26 12
-43 26 -39 30 4 5 0 6 -9 3 -12 -4 -18 -1 -18 8 0 8 -5 15 -11 15 -5 0 -7 -4
-4 -10 3 -5 4 -10 1 -10 -11 0 -56 24 -56 29 0 4 -9 7 -20 8 -24 2 -52 27 -42
39 4 5 -2 2 -12 -6 -15 -12 -20 -12 -23 -2 -3 6 -13 12 -24 12 -11 0 -19 7
-20 18 0 10 -3 12 -6 4 -2 -6 -10 -9 -16 -5 -7 4 -14 8 -17 9 -38 12 -49 18
-44 25 3 5 -1 6 -9 3 -8 -3 -19 5 -26 18 -6 13 -9 15 -7 6 6 -22 -2 -22 -28
-3 -10 8 -23 12 -28 9 -4 -3 -11 2 -14 10 -3 9 -10 14 -14 11 -5 -3 -24 3 -42
13 -18 10 -50 24 -70 31 -21 7 -38 17 -38 22 0 5 -4 8 -8 7 -4 -2 -25 4 -46
12 -30 11 -36 18 -32 35 5 20 5 20 -9 1 -15 -20 -15 -20 -16 0 0 10 -3 13 -6
7 -2 -7 -9 -13 -14 -13 -6 0 -8 4 -4 9 3 6 -3 9 -12 9 -10 -1 -53 15 -96 35
-43 21 -83 37 -88 37 -5 0 -9 4 -9 10 0 5 -6 7 -14 4 -8 -3 -23 3 -33 13 -24
23 -55 26 -89 8 -15 -8 -31 -12 -36 -9 -4 3 -8 1 -8 -3 0 -5 -19 -17 -42 -27
-24 -9 -51 -21 -60 -27 -10 -5 -25 -9 -33 -9 -8 0 -15 -4 -15 -9 0 -5 -8 -11
-17 -14 -10 -2 -27 -8 -38 -13 -16 -6 -18 -5 -10 7 6 8 3 7 -6 -2 -9 -10 -38
-27 -65 -39 -27 -12 -62 -29 -77 -37 -16 -8 -31 -12 -34 -9 -3 3 -12 -2 -21
-10 -12 -13 -16 -13 -23 -2 -7 10 -9 9 -9 -3 0 -9 -8 -19 -17 -23 -10 -3 -29
-10 -42 -16 -18 -8 -22 -7 -18 3 3 8 -1 14 -8 14 -7 0 -11 -6 -8 -14 5 -14
-114 -76 -129 -67 -4 3 -8 1 -8 -5 0 -5 -10 -13 -22 -17 -27 -8 -33 -7 -33 5
0 5 -4 13 -9 18 -6 5 -6 2 -1 -6 6 -10 4 -13 -7 -9 -8 4 -15 1 -15 -7 0 -8 7
-11 16 -7 14 5 14 3 2 -11 -11 -14 -16 -15 -29 -5 -13 11 -14 11 -7 -1 6 -11
4 -13 -8 -8 -9 3 -16 3 -16 -1 3 -19 -2 -23 -16 -12 -13 11 -14 10 -9 -4 4 -9
3 -16 -2 -15 -5 1 -22 -4 -39 -11 -16 -7 -32 -14 -35 -14 -3 -1 -11 -5 -18
-10 -7 -4 -19 -5 -27 -2 -8 3 -14 2 -12 -2 1 -4 -2 -8 -7 -9 -5 -1 -12 -6 -15
-11 -11 -18 -110 -51 -115 -38 -2 6 -5 2 -5 -8 -1 -11 -4 -17 -7 -13 -4 3 -13
-1 -21 -9 -9 -8 -17 -13 -19 -11 -7 7 18 67 26 62 4 -3 6 4 3 15 -3 11 0 20 6
20 6 0 10 3 9 8 -6 16 26 91 35 85 6 -3 7 -1 4 4 -9 14 17 76 27 66 4 -4 4 -1
1 8 -8 21 23 91 37 83 7 -4 8 -3 4 5 -4 6 -2 27 5 46 10 25 18 34 29 30 11 -5
12 -3 3 6 -13 13 3 73 18 63 5 -3 6 2 3 11 -4 8 -2 21 4 28 5 6 13 27 17 45 3
17 11 32 17 32 6 0 8 3 5 7 -4 3 -2 12 4 20 6 7 8 13 3 13 -5 0 -3 4 5 9 9 6
25 5 40 -1 19 -7 23 -6 15 2 -6 6 -20 12 -31 12 -16 2 -18 5 -9 25 6 13 18 23
26 23 13 0 13 2 1 9 -12 8 -12 12 -2 25 8 9 10 16 7 16 -4 0 -2 9 4 20 6 11
18 20 28 20 13 0 14 2 4 8 -10 7 -10 15 -2 38 6 16 12 31 12 34 0 3 5 14 11
25 6 11 12 22 12 25 3 21 31 80 37 80 4 0 7 3 7 8 -3 19 2 33 11 27 5 -3 7 0
4 8 -3 8 18 68 46 133 29 66 53 124 54 131 1 7 5 16 9 19 4 4 7 16 7 26 0 10
5 18 12 18 6 0 9 3 5 6 -5 5 24 81 72 189 10 22 21 53 25 68 5 20 11 27 22 23
8 -3 13 -2 9 3 -3 5 -2 11 2 14 5 2 3 2 -4 1 -7 -2 -10 3 -6 12 3 7 9 14 15
14 5 0 6 4 3 10 -3 5 5 31 18 57 13 27 25 53 27 58 1 6 6 20 11 33 5 13 9 28
9 33 0 5 5 9 11 9 5 0 8 4 4 10 -3 5 -1 17 4 27 21 38 54 118 52 127 -1 5 6 6
15 2 13 -5 14 -3 6 6 -7 9 -5 24 8 51 20 40 20 41 20 58 0 5 4 8 9 5 5 -4 7 4
3 16 -5 21 -4 22 13 8 17 -14 17 -14 7 6 -6 12 -8 25 -4 29 4 3 7 10 8 13 0 4
8 24 17 46 9 21 17 43 17 48 0 5 4 7 9 4 5 -3 9 0 8 7 -1 31 4 47 14 47 6 0 9
-6 6 -13 -3 -8 1 -14 9 -14 12 0 12 4 -1 23 -21 32 -19 37 10 32 13 -3 22 -1
19 3 -3 5 -13 9 -22 9 -10 0 -13 3 -7 8 6 4 11 15 13 25 2 10 12 39 24 65 11
26 31 74 44 107 12 33 26 59 31 58 4 -1 9 13 9 30 1 17 9 36 20 44 10 7 13 13
6 13 -6 0 1 23 17 53 15 29 26 58 23 65 -2 6 3 15 12 18 9 3 13 10 10 15 -2 5
1 19 8 31 11 22 12 22 16 3 2 -10 11 -29 19 -42z m337 -819 c4 -10 1 -14 -6
-12 -15 5 -23 28 -10 28 5 0 13 -7 16 -16z"/>
<path d="M3506 4777 c3 -10 9 -15 12 -12 3 3 0 11 -7 18 -10 9 -11 8 -5 -6z"/>
<path d="M3460 4722 c0 -5 7 -9 15 -9 8 0 15 4 15 9 0 4 -7 8 -15 8 -8 0 -15
-4 -15 -8z"/>
<path d="M3507 4693 c5 -12 3 -14 -8 -8 -8 5 -11 4 -6 0 4 -5 14 -10 22 -11
12 -2 12 2 5 17 -13 23 -22 25 -13 2z"/>
<path d="M3550 4700 c0 -5 5 -10 11 -10 5 0 7 5 4 10 -3 6 -8 10 -11 10 -2 0
-4 -4 -4 -10z"/>
<path d="M3560 4660 c-9 -6 -10 -10 -3 -10 6 0 15 5 18 10 8 12 4 12 -15 0z"/>
<path d="M3477 4635 c-6 -15 10 -32 20 -21 4 3 1 6 -5 6 -6 0 -9 7 -6 15 4 8
4 15 1 15 -3 0 -7 -7 -10 -15z"/>
<path d="M3547 4613 c6 -25 18 -30 29 -10 4 6 4 9 -1 5 -4 -4 -14 0 -21 10
-12 15 -12 15 -7 -5z"/>
<path d="M3410 4600 c0 -5 5 -10 10 -10 6 0 10 5 10 10 0 6 -4 10 -10 10 -5 0
-10 -4 -10 -10z"/>
<path d="M3515 4580 c-3 -5 -3 -10 1 -10 4 0 -1 -7 -12 -15 -18 -15 -18 -15 0
-8 12 4 17 3 13 -4 -3 -5 0 -10 8 -10 12 0 12 3 2 16 -10 12 -9 14 4 9 9 -4
16 -1 16 7 0 8 -7 11 -15 7 -10 -3 -13 -1 -8 6 4 7 5 12 2 12 -3 0 -8 -4 -11
-10z"/>
<path d="M3575 4559 c-6 -8 -4 -10 5 -4 10 6 12 4 6 -11 -6 -15 -5 -17 5 -6 9
9 10 15 2 23 -8 8 -13 7 -18 -2z"/>
<path d="M3610 4536 c0 -2 8 -10 18 -17 15 -13 16 -12 3 4 -13 16 -21 21 -21
13z"/>
<path d="M3460 4515 c-11 -13 -10 -14 5 -9 14 6 16 4 10 -6 -5 -8 -4 -11 3 -6
6 4 9 13 5 21 -7 19 -8 19 -23 0z"/>
<path d="M3550 4520 c0 -5 5 -10 10 -10 6 0 10 5 10 10 0 6 -4 10 -10 10 -5 0
-10 -4 -10 -10z"/>
<path d="M3430 4505 c0 -5 5 -17 10 -25 5 -8 10 -10 10 -5 0 6 -5 17 -10 25
-5 8 -10 11 -10 5z"/>
<path d="M3587 4492 c5 -11 3 -13 -7 -7 -9 5 -11 4 -6 -4 6 -9 12 -9 24 1 10
7 18 13 20 14 1 1 -6 4 -17 7 -15 3 -18 1 -14 -11z"/>
<path d="M3517 4493 c-12 -11 -8 -20 11 -25 11 -3 19 0 19 7 0 8 -7 11 -15 7
-10 -3 -13 -1 -8 6 8 13 3 16 -7 5z"/>
<path d="M3478 4448 c2 -10 6 -18 7 -18 1 0 5 8 7 18 3 11 0 19 -7 19 -7 0
-10 -8 -7 -19z"/>
<path d="M3420 4453 c0 -6 8 -17 18 -24 16 -13 16 -13 2 6 -8 11 -16 22 -17
24 -2 2 -3 0 -3 -6z"/>
<path d="M3456 4447 c3 -10 9 -15 12 -12 3 3 0 11 -7 18 -10 9 -11 8 -5 -6z"/>
<path d="M3336 4439 c3 -5 10 -6 16 -3 7 5 9 2 6 -8 -4 -8 0 -15 8 -15 19 0 1
30 -20 33 -9 1 -14 -2 -10 -7z"/>
<path d="M3550 4440 c0 -5 5 -10 10 -10 6 0 10 5 10 10 0 6 -4 10 -10 10 -5 0
-10 -4 -10 -10z"/>
<path d="M3628 4432 c-3 -11 0 -19 7 -19 7 0 10 8 7 19 -2 10 -6 18 -7 18 -1
0 -5 -8 -7 -18z"/>
<path d="M3408 4413 c-22 -5 -24 -20 -3 -20 8 0 16 6 19 14 3 7 4 12 3 12 -1
-1 -10 -3 -19 -6z"/>
<path d="M3573 4405 c0 -8 7 -11 15 -7 11 4 13 1 7 -8 -5 -9 -4 -11 3 -6 17
11 15 23 -6 28 -11 3 -19 0 -19 -7z"/>
<path d="M3317 4396 c-3 -8 0 -17 7 -19 10 -4 12 1 9 14 -6 23 -9 24 -16 5z"/>
<path d="M3524 4399 c-3 -6 -1 -16 5 -22 9 -9 10 -7 5 7 -6 15 -4 17 6 11 9
-5 11 -4 6 3 -9 15 -13 15 -22 1z"/>
<path d="M3361 4376 c-9 -10 -8 -15 3 -19 9 -4 18 -1 22 5 5 7 2 8 -6 3 -10
-6 -12 -4 -7 8 8 21 3 22 -12 3z"/>
<path d="M3635 4380 c-3 -5 -4 -10 0 -10 3 0 1 -10 -5 -22 -10 -21 -10 -21 3
-6 8 10 16 15 19 12 3 -2 8 2 11 10 4 11 1 13 -10 9 -11 -4 -14 -2 -9 5 4 7 5
12 2 12 -3 0 -8 -4 -11 -10z"/>
<path d="M3560 4360 c18 -12 30 -13 30 -2 0 4 -10 9 -22 9 -18 2 -20 0 -8 -7z"/>
<path d="M3393 4318 c3 -9 1 -19 -6 -22 -9 -3 -9 -5 0 -5 18 -1 23 13 11 29
-8 12 -9 12 -5 -2z"/>
<path d="M3666 4322 c-2 -4 4 -8 14 -8 10 0 16 4 14 8 -3 4 -9 8 -14 8 -5 0
-11 -4 -14 -8z"/>
<path d="M3437 4293 c-10 -9 -9 -23 1 -23 5 0 9 7 9 15 0 17 -1 18 -10 8z"/>
<path d="M3660 4289 c0 -5 -6 -7 -12 -3 -7 4 -9 3 -5 -1 13 -15 36 -14 30 1
-6 17 -13 18 -13 3z"/>
<path d="M3337 4276 c-4 -10 1 -12 14 -9 23 6 24 9 5 16 -8 3 -17 0 -19 -7z"/>
<path d="M3490 4282 c0 -4 10 -9 22 -9 18 -2 20 0 8 7 -18 12 -30 13 -30 2z"/>
<path d="M3593 4265 c0 -8 4 -15 9 -15 4 0 8 4 8 9 0 6 -4 12 -8 15 -5 3 -9
-1 -9 -9z"/>
<path d="M3403 4262 c-7 -4 -9 -13 -4 -21 6 -9 10 -7 14 8 3 12 4 21 4 21 -1
0 -7 -4 -14 -8z"/>
<path d="M3467 4249 c6 -22 20 -26 20 -4 0 8 -6 16 -13 19 -7 3 -10 -2 -7 -15z"/>
<path d="M3307 4231 c-3 -13 -1 -18 9 -14 7 2 10 11 7 19 -7 19 -10 18 -16 -5z"/>
<path d="M3560 4238 c-12 -8 -12 -9 2 -5 9 3 19 1 22 -6 3 -9 5 -9 5 0 1 18
-13 23 -29 11z"/>
<path d="M3690 4240 c0 -5 5 -10 10 -10 6 0 10 5 10 10 0 6 -4 10 -10 10 -5 0
-10 -4 -10 -10z"/>
<path d="M3515 4221 c6 -11 4 -13 -11 -8 -17 6 -17 6 -3 -5 9 -7 16 -17 17
-21 0 -5 4 -12 8 -15 4 -4 3 -1 -1 7 -6 11 -4 13 11 8 17 -6 17 -6 3 5 -9 7
-16 17 -17 21 0 5 -4 12 -8 15 -4 4 -3 1 1 -7z"/>
<path d="M3365 4210 c-16 -7 -17 -9 -3 -9 9 -1 20 4 23 9 7 11 7 11 -20 0z"/>
<path d="M3416 4207 c3 -10 9 -15 12 -12 3 3 0 11 -7 18 -10 9 -11 8 -5 -6z"/>
<path d="M3451 4211 c-8 -5 -9 -11 -3 -15 5 -3 12 1 16 9 6 17 6 18 -13 6z"/>
<path d="M3280 4200 c8 -5 20 -10 25 -10 6 0 3 5 -5 10 -8 5 -19 10 -25 10 -5
0 -3 -5 5 -10z"/>
<path d="M3577 4196 c-4 -10 -1 -13 8 -9 8 3 12 9 9 14 -7 12 -11 11 -17 -5z"/>
<path d="M3610 4201 c0 -6 4 -13 10 -16 6 -3 7 1 4 9 -7 18 -14 21 -14 7z"/>
<path d="M3656 4191 c-4 -5 3 -7 14 -4 23 6 26 13 6 13 -8 0 -17 -4 -20 -9z"/>
<path d="M3230 4183 c0 -6 6 -15 13 -20 15 -9 53 -16 45 -7 -3 3 -14 7 -23 8
-9 1 -21 9 -26 17 -5 9 -9 10 -9 2z"/>
<path d="M3348 4183 c7 -3 16 -2 19 1 4 3 -2 6 -13 5 -11 0 -14 -3 -6 -6z"/>
<path d="M3451 4173 c-1 -18 13 -23 29 -11 12 8 12 9 -2 5 -9 -3 -19 -1 -22 6
-3 9 -5 9 -5 0z"/>
<path d="M3553 4155 c0 -8 6 -16 13 -19 7 -3 10 2 7 15 -6 22 -20 26 -20 4z"/>
<path d="M3627 4151 c-3 -13 -1 -18 9 -14 7 2 10 11 7 19 -7 19 -10 18 -16 -5z"/>
<path d="M3717 4155 c-6 -15 10 -32 20 -21 4 3 1 6 -5 6 -6 0 -9 7 -6 15 4 8
4 15 1 15 -3 0 -7 -7 -10 -15z"/>
<path d="M3234 4136 c1 -8 5 -18 8 -22 4 -3 5 1 4 10 -1 8 -5 18 -8 22 -4 3
-5 -1 -4 -10z"/>
<path d="M3430 4126 c0 -2 7 -7 16 -10 8 -3 12 -2 9 4 -6 10 -25 14 -25 6z"/>
<path d="M3547 4119 c7 -7 15 -10 18 -7 3 3 -2 9 -12 12 -14 6 -15 5 -6 -5z"/>
<path d="M3585 4120 c-3 -6 1 -7 9 -4 18 7 21 14 7 14 -6 0 -13 -4 -16 -10z"/>
<path d="M3640 4120 c-9 -6 -10 -10 -3 -10 6 0 15 5 18 10 8 12 4 12 -15 0z"/>
<path d="M3675 4120 c3 -5 8 -10 11 -10 2 0 4 5 4 10 0 6 -5 10 -11 10 -5 0
-7 -4 -4 -10z"/>
<path d="M3395 4111 c-3 -5 0 -13 6 -17 8 -5 9 -3 4 6 -6 10 -4 12 9 7 10 -4
15 -3 11 3 -8 13 -22 13 -30 1z"/>
<path d="M3524 4099 c-3 -6 -2 -15 4 -21 6 -6 12 -6 17 3 6 8 4 10 -5 4 -10
-6 -12 -4 -7 8 7 19 2 23 -9 6z"/>
<path d="M3600 4100 c-9 -6 -10 -10 -3 -10 6 0 15 5 18 10 8 12 4 12 -15 0z"/>
<path d="M3666 4096 c6 -15 4 -17 -6 -11 -9 6 -11 4 -5 -4 5 -9 10 -10 18 -2
8 8 7 14 -2 24 -10 10 -11 8 -5 -7z"/>
<path d="M3793 4085 c0 -8 4 -12 9 -9 4 3 8 0 8 -7 0 -7 2 -10 5 -7 7 7 -5 38
-14 38 -4 0 -8 -7 -8 -15z"/>
<path d="M3353 4075 c0 -8 4 -12 9 -9 4 3 8 9 8 15 0 5 -4 9 -8 9 -5 0 -9 -7
-9 -15z"/>
<path d="M3433 4072 c0 -12 5 -22 9 -22 11 0 10 12 -2 30 -7 12 -9 10 -7 -8z"/>
<path d="M3605 4083 c-33 -8 -36 -18 -6 -18 15 0 28 5 28 13 0 6 -1 11 -1 11
-1 -1 -10 -3 -21 -6z"/>
<path d="M3388 4048 c5 -21 17 -23 28 -6 5 7 3 8 -6 3 -9 -6 -12 -4 -8 7 4 8
1 15 -7 15 -7 0 -10 -8 -7 -19z"/>
<path d="M3770 4050 c-11 -7 -11 -10 -2 -10 7 0 10 -4 7 -10 -4 -6 1 -7 11 -3
13 5 15 3 9 -7 -6 -9 -4 -11 5 -5 10 6 10 11 -3 20 -9 7 -14 15 -10 18 9 10 0
8 -17 -3z"/>
<path d="M3200 4040 c-9 -6 -10 -10 -3 -10 6 0 15 5 18 10 8 12 4 12 -15 0z"/>
<path d="M3340 4046 c0 -2 8 -10 18 -17 15 -13 16 -12 3 4 -13 16 -21 21 -21
13z"/>
<path d="M3550 4042 c0 -5 7 -9 15 -9 8 0 12 4 9 9 -3 4 -9 8 -15 8 -5 0 -9
-4 -9 -8z"/>
<path d="M3624 4038 c-4 -7 -4 -10 1 -6 4 4 14 0 21 -10 12 -15 12 -15 7 6 -6
24 -18 29 -29 10z"/>
<path d="M3325 4022 c-13 -9 -17 -32 -6 -32 5 0 11 9 14 20 6 22 6 22 -8 12z"/>
<path d="M3372 4011 c-11 -7 -11 -9 0 -14 9 -3 15 1 15 9 0 8 -1 14 -1 14 -1
0 -7 -4 -14 -9z"/>
<path d="M3450 4011 c-8 -6 -17 -8 -21 -5 -4 2 -11 -1 -15 -7 -5 -8 -3 -9 6
-4 10 6 12 4 7 -8 -4 -11 -2 -14 9 -10 8 3 12 8 10 11 -3 3 2 11 12 18 19 15
14 18 -8 5z"/>
<path d="M3162 4001 c-11 -6 -9 -9 6 -13 15 -4 19 -2 15 8 -6 16 -4 16 -21 5z"/>
<path d="M3217 3996 c-4 -10 1 -12 14 -9 23 6 24 9 5 16 -8 3 -17 0 -19 -7z"/>
<path d="M3586 4002 c-2 -4 4 -8 14 -8 10 0 16 4 14 8 -3 4 -9 8 -14 8 -5 0
-11 -4 -14 -8z"/>
<path d="M3756 3995 c-9 -26 -7 -32 5 -12 6 10 9 21 6 23 -2 3 -7 -2 -11 -11z"/>
<path d="M3279 3988 c-6 -19 -4 -50 4 -55 6 -4 7 -1 2 7 -6 9 -4 12 6 8 10 -4
15 1 15 12 0 11 -5 16 -15 12 -9 -3 -12 -1 -7 6 4 7 5 12 2 12 -3 0 -6 -1 -7
-2z"/>
<path d="M3795 3981 c6 -11 4 -13 -10 -7 -15 5 -16 4 -5 -9 7 -8 16 -15 20
-15 10 0 7 27 -5 37 -4 5 -5 2 0 -6z"/>
<path d="M3337 3965 c3 -8 9 -12 14 -9 12 7 11 11 -5 17 -10 4 -13 1 -9 -8z"/>
<path d="M3475 3970 c-4 -6 -11 -8 -16 -5 -5 4 -9 1 -9 -4 0 -16 16 -13 30 4
7 8 10 15 7 15 -3 0 -9 -5 -12 -10z"/>
<path d="M3608 3968 c-7 -17 15 -19 29 -3 4 4 3 5 -4 2 -6 -4 -13 -2 -15 5 -3
8 -6 6 -10 -4z"/>
<path d="M3390 3961 c0 -6 4 -12 8 -15 5 -3 9 1 9 9 0 8 -4 15 -9 15 -4 0 -8
-4 -8 -9z"/>
<path d="M3510 3950 c-9 -6 -10 -10 -3 -10 6 0 15 5 18 10 8 12 4 12 -15 0z"/>
<path d="M3673 3945 c0 -8 4 -15 9 -15 4 0 8 4 8 9 0 6 -4 12 -8 15 -5 3 -9
-1 -9 -9z"/>
<path d="M3839 3953 c-1 -5 -1 -12 0 -17 1 -5 -6 -5 -16 -2 -14 6 -15 4 -6 -4
8 -9 16 -9 30 -1 10 6 13 11 5 11 -7 0 -10 5 -7 10 3 6 4 10 1 10 -3 0 -7 -3
-7 -7z"/>
<path d="M3427 3933 c5 -12 3 -14 -8 -8 -8 5 -11 4 -6 0 4 -5 14 -10 22 -11
12 -2 12 2 5 17 -13 23 -22 25 -13 2z"/>
<path d="M3150 3919 c0 -3 9 -9 19 -12 13 -3 18 0 15 7 -5 13 -34 18 -34 5z"/>
<path d="M3317 3916 c-3 -8 0 -17 7 -19 10 -4 12 1 9 14 -6 23 -9 24 -16 5z"/>
<path d="M3642 3921 c-11 -6 -9 -9 6 -13 15 -4 19 -2 15 8 -6 16 -4 16 -21 5z"/>
<path d="M3764 3919 c-3 -6 -1 -16 5 -22 9 -9 10 -7 5 7 -6 15 -4 17 6 11 9
-5 11 -4 6 3 -9 15 -13 15 -22 1z"/>
<path d="M3360 3916 c0 -2 7 -7 16 -10 8 -3 12 -2 9 4 -6 10 -25 14 -25 6z"/>
<path d="M3123 3898 c-13 -21 -12 -36 3 -42 11 -4 12 -1 5 13 -7 12 -6 22 1
29 7 7 9 12 6 12 -4 0 -10 -6 -15 -12z"/>
<path d="M3196 3895 c-9 -26 -7 -32 5 -12 6 10 9 21 6 23 -2 3 -7 -2 -11 -11z"/>
<path d="M3349 3883 c-13 -16 -12 -17 4 -4 16 13 21 21 13 21 -2 0 -10 -8 -17
-17z"/>
<path d="M3394 3875 c1 -8 6 -18 11 -22 4 -5 5 -2 0 6 -6 11 -4 13 10 7 15 -5
16 -4 5 9 -16 19 -29 19 -26 0z"/>
<path d="M3520 3880 c-12 -7 -10 -9 8 -7 12 0 22 5 22 9 0 11 -12 10 -30 -2z"/>
<path d="M3671 3873 c7 -12 15 -20 18 -17 3 2 -3 12 -13 22 -17 16 -18 16 -5
-5z"/>
<path d="M3870 3878 c0 -4 4 -8 9 -8 6 0 12 4 15 8 3 5 -1 9 -9 9 -8 0 -15 -4
-15 -9z"/>
<path d="M3590 3876 c0 -2 7 -9 15 -16 13 -11 14 -10 9 4 -5 14 -24 23 -24 12z"/>
<path d="M3090 3861 c0 -6 4 -13 10 -16 6 -3 7 1 4 9 -7 18 -14 21 -14 7z"/>
<path d="M3436 3855 c-9 -26 -7 -32 5 -12 6 10 9 21 6 23 -2 3 -7 -2 -11 -11z"/>
<path d="M3563 3862 c-7 -4 -9 -13 -4 -21 6 -9 10 -7 14 8 3 12 4 21 4 21 -1
0 -7 -4 -14 -8z"/>
<path d="M3803 3862 c-7 -4 -9 -13 -4 -21 6 -9 10 -7 14 8 3 12 4 21 4 21 -1
0 -7 -4 -14 -8z"/>
<path d="M3168 3853 c-22 -5 -24 -20 -3 -20 8 0 16 6 19 14 3 7 4 12 3 12 -1
-1 -10 -3 -19 -6z"/>
<path d="M3352 3855 c4 -4 0 -14 -10 -21 -15 -12 -15 -12 6 -7 24 6 29 18 10
29 -7 4 -10 4 -6 -1z"/>
<path d="M3655 3850 c-4 -6 -11 -8 -16 -5 -5 4 -9 2 -9 -3 0 -5 8 -12 18 -14
12 -4 18 1 18 13 0 22 -2 23 -11 9z"/>
<path d="M3286 3838 c3 -5 10 -6 15 -3 13 9 11 12 -6 12 -8 0 -12 -4 -9 -9z"/>
<path d="M3841 3836 c-9 -10 -8 -15 3 -19 11 -4 13 -1 9 10 -5 12 -3 14 7 8 9
-5 11 -4 6 3 -9 15 -11 15 -25 -2z"/>
<path d="M3124 3815 c-4 -8 -10 -12 -15 -9 -16 10 -9 -3 9 -17 9 -7 14 -10 10
-5 -4 5 -3 17 3 27 5 11 7 19 4 19 -3 0 -8 -7 -11 -15z"/>
<path d="M3193 3823 c4 -3 1 -13 -6 -22 -11 -14 -10 -14 6 -2 20 15 22 31 5
31 -6 0 -8 -3 -5 -7z"/>
<path d="M3395 3821 c-3 -6 3 -14 13 -20 14 -7 19 -6 19 4 0 7 -7 11 -15 7
-10 -3 -13 -1 -8 6 4 7 5 12 2 12 -3 0 -7 -4 -11 -9z"/>
<path d="M3519 3828 c-5 -18 -6 -38 -1 -34 7 8 12 36 6 36 -2 0 -4 -1 -5 -2z"/>
<path d="M3597 3813 c3 -7 6 -13 8 -13 2 0 5 6 8 13 3 8 -1 14 -8 14 -7 0 -11
-6 -8 -14z"/>
<path d="M3759 3828 c-5 -16 -4 -46 2 -42 4 2 7 13 6 24 -1 17 -5 26 -8 18z"/>
<path d="M3537 3801 c-4 -17 -3 -21 5 -13 5 5 8 16 6 23 -3 8 -7 3 -11 -10z"/>
<path d="M3236 3794 c-3 -8 0 -16 6 -20 7 -5 8 -2 3 6 -6 9 -4 12 7 8 8 -4 15
-1 15 6 0 17 -25 16 -31 0z"/>
<path d="M3310 3799 c0 -5 5 -7 10 -4 6 3 10 8 10 11 0 2 -4 4 -10 4 -5 0 -10
-5 -10 -11z"/>
<path d="M3364 3799 c-4 -7 -3 -9 4 -5 5 3 13 0 15 -6 4 -9 6 -10 6 -1 1 17
-16 25 -25 12z"/>
<path d="M3444 3799 c-3 -6 -1 -16 5 -22 9 -9 10 -7 5 7 -6 15 -4 17 6 11 9
-5 11 -4 6 3 -9 15 -13 15 -22 1z"/>
<path d="M3627 3799 c7 -7 15 -10 18 -7 3 3 -2 9 -12 12 -14 6 -15 5 -6 -5z"/>
<path d="M3814 3798 c-5 -7 -2 -8 6 -3 10 6 12 4 6 -10 -5 -15 -4 -16 9 -5 19
15 19 16 0 23 -8 4 -17 1 -21 -5z"/>
<path d="M3865 3800 c-3 -6 1 -7 9 -4 18 7 21 14 7 14 -6 0 -13 -4 -16 -10z"/>
<path d="M3907 3799 c7 -7 15 -10 18 -7 3 3 -2 9 -12 12 -14 6 -15 5 -6 -5z"/>
<path d="M3557 3787 c-3 -8 1 -14 8 -14 7 0 11 6 8 14 -3 7 -6 13 -8 13 -2 0
-5 -6 -8 -13z"/>
<path d="M3883 3782 c-7 -4 -9 -13 -4 -21 6 -9 10 -7 14 8 3 12 4 21 4 21 -1
0 -7 -4 -14 -8z"/>
<path d="M3088 3773 c-10 -2 -18 -9 -18 -15 0 -6 3 -8 7 -5 3 4 11 3 17 -3 8
-6 12 -3 12 11 0 10 0 18 -1 18 0 -1 -8 -3 -17 -6z"/>
<path d="M3196 3767 c3 -10 9 -15 12 -12 3 3 0 11 -7 18 -10 9 -11 8 -5 -6z"/>
<path d="M3516 3767 c3 -10 9 -15 12 -12 3 3 0 11 -7 18 -10 9 -11 8 -5 -6z"/>
<path d="M3608 3773 c-21 -5 -23 -19 -6 -29 7 -5 8 -3 3 6 -6 9 -4 12 7 8 9
-4 15 0 15 8 0 8 -1 13 -1 13 -1 -1 -9 -3 -18 -6z"/>
<path d="M3774 3759 c0 -12 4 -15 12 -9 6 6 14 7 17 3 4 -3 7 -2 7 4 0 6 -8
13 -18 15 -12 4 -18 -1 -18 -13z"/>
<path d="M3273 3752 c0 -12 5 -22 9 -22 11 0 10 12 -2 30 -7 12 -9 10 -7 -8z"/>
<path d="M3470 3759 c0 -3 9 -9 19 -12 13 -3 18 0 15 7 -5 13 -34 18 -34 5z"/>
<path d="M3655 3759 c-6 -8 -4 -10 5 -4 10 6 12 4 6 -11 -6 -15 -5 -17 5 -6 9
9 10 15 2 23 -8 8 -13 7 -18 -2z"/>
<path d="M3044 3739 c-3 -6 -2 -15 4 -21 6 -6 12 -6 17 3 6 8 4 10 -5 4 -10
-6 -12 -4 -7 8 7 19 2 23 -9 6z"/>
<path d="M3227 3733 c6 -25 18 -30 29 -10 4 6 4 9 -1 5 -4 -4 -14 0 -21 10
-12 15 -12 15 -7 -5z"/>
<path d="M3440 3740 c-9 -6 -10 -10 -3 -10 6 0 15 5 18 10 8 12 4 12 -15 0z"/>
<path d="M3555 3740 c6 -10 4 -12 -8 -7 -11 4 -14 2 -10 -9 3 -8 8 -12 11 -10
3 3 11 -2 19 -12 13 -15 13 -15 4 4 -6 12 -8 24 -5 27 3 3 0 8 -7 13 -8 5 -10
3 -4 -6z"/>
<path d="M3828 3732 c4 -11 1 -13 -8 -7 -8 5 -11 4 -6 -3 4 -6 12 -9 20 -6 16
6 17 31 0 31 -7 0 -10 -7 -6 -15z"/>
<path d="M3930 3730 c-8 -5 -12 -12 -9 -15 4 -3 12 1 19 10 14 17 11 19 -10 5z"/>
<path d="M3315 3720 c-3 -5 -1 -10 4 -10 6 0 11 5 11 10 0 6 -2 10 -4 10 -3 0
-8 -4 -11 -10z"/>
<path d="M3510 3721 c0 -6 4 -13 10 -16 6 -3 7 1 4 9 -7 18 -14 21 -14 7z"/>
<path d="M3610 3718 c0 -11 12 -10 30 2 12 7 10 9 -8 7 -12 0 -22 -5 -22 -9z"/>
<path d="M3436 3711 c-3 -5 1 -11 9 -14 9 -4 12 -1 8 9 -6 16 -10 17 -17 5z"/>
<path d="M3955 3701 c6 -11 4 -13 -8 -8 -10 4 -14 2 -11 -7 6 -17 32 -16 30 0
-1 8 -6 17 -11 21 -4 5 -5 2 0 -6z"/>
<path d="M3206 3691 c-19 -7 -19 -8 0 -13 13 -3 21 0 21 8 0 8 -1 14 -1 13 -1
0 -10 -4 -20 -8z"/>
<path d="M3290 3691 c-8 -6 -17 -8 -21 -5 -4 2 -11 -1 -15 -7 -5 -8 -3 -9 6
-4 10 6 12 4 7 -8 -4 -11 -2 -14 9 -10 8 3 12 8 10 11 -3 3 2 11 12 18 19 15
14 18 -8 5z"/>
<path d="M3488 3693 c-22 -5 -24 -20 -3 -20 8 0 16 6 19 14 3 7 4 12 3 12 -1
-1 -10 -3 -19 -6z"/>
<path d="M3067 3671 c-3 -13 -1 -18 9 -14 7 2 10 11 7 19 -7 19 -10 18 -16 -5z"/>
<path d="M3797 3676 c-3 -8 0 -17 7 -19 10 -4 12 1 9 14 -6 23 -9 24 -16 5z"/>
<path d="M3353 3673 c4 -6 2 -13 -5 -15 -8 -3 -6 -6 4 -10 17 -7 19 15 3 29
-4 4 -5 3 -2 -4z"/>
<path d="M3445 3659 c-4 -6 -5 -12 -2 -15 2 -3 7 2 10 11 7 17 1 20 -8 4z"/>
<path d="M3835 3661 c-3 -5 0 -13 6 -17 7 -4 9 -3 5 4 -3 5 0 13 6 15 9 4 10
6 1 6 -6 1 -14 -3 -18 -8z"/>
<path d="M3910 3661 c0 -6 4 -12 8 -15 5 -3 9 1 9 9 0 8 -4 15 -9 15 -4 0 -8
-4 -8 -9z"/>
<path d="M3530 3650 c0 -5 -5 -9 -11 -7 -6 1 -14 -5 -16 -13 -4 -12 -3 -12 5
-2 5 8 13 13 18 12 5 -1 10 3 12 9 2 6 1 11 -2 11 -3 0 -6 -4 -6 -10z"/>
<path d="M3080 3640 c-9 -6 -10 -10 -3 -10 6 0 15 5 18 10 8 12 4 12 -15 0z"/>
<path d="M3230 3646 c0 -2 7 -7 16 -10 8 -3 12 -2 9 4 -6 10 -25 14 -25 6z"/>
<path d="M3787 3639 c7 -7 15 -10 18 -7 3 3 -2 9 -12 12 -14 6 -15 5 -6 -5z"/>
<path d="M3961 3636 c-9 -11 -9 -16 0 -22 8 -5 9 -3 4 6 -6 9 -4 12 7 8 9 -4
15 0 15 8 0 18 -11 18 -26 0z"/>
<path d="M3586 3623 c-6 -14 -5 -15 5 -6 7 7 10 15 7 18 -3 3 -9 -2 -12 -12z"/>
<path d="M3674 3625 c1 -8 6 -18 11 -22 4 -4 5 -3 2 4 -4 6 -2 13 5 15 8 3 6
6 -4 10 -10 4 -15 2 -14 -7z"/>
<path d="M3033 3615 c0 -7 8 -17 17 -23 12 -7 17 -7 17 4 0 7 -5 10 -10 7 -6
-4 -8 0 -5 9 4 8 1 15 -6 15 -7 0 -13 -6 -13 -12z"/>
<path d="M3107 3613 c5 -12 3 -14 -7 -8 -9 6 -11 4 -6 -4 5 -7 10 -10 13 -7 3
3 15 1 27 -5 19 -9 19 -9 4 4 -10 8 -15 16 -12 19 2 3 -2 8 -10 11 -11 4 -13
1 -9 -10z"/>
<path d="M3188 3623 c7 -3 16 -2 19 1 4 3 -2 6 -13 5 -11 0 -14 -3 -6 -6z"/>
<path d="M3227 3609 c6 -23 9 -24 16 -5 3 8 0 17 -7 19 -10 4 -12 -1 -9 -14z"/>
<path d="M3760 3620 c-8 -5 -11 -10 -6 -10 6 0 1 -7 -10 -16 -19 -15 -19 -15
1 -6 11 6 23 9 27 9 3 -1 10 2 15 7 5 6 2 6 -6 1 -11 -6 -13 -4 -8 8 7 20 7
20 -13 7z"/>
<path d="M3827 3613 c4 -10 2 -14 -4 -10 -5 3 -10 0 -10 -8 0 -10 4 -12 12 -5
7 5 15 6 20 2 4 -4 2 3 -4 16 -14 26 -23 30 -14 5z"/>
<path d="M3176 3598 c3 -5 10 -6 15 -3 13 9 11 12 -6 12 -8 0 -12 -4 -9 -9z"/>
<path d="M3435 3600 c3 -5 8 -10 11 -10 2 0 4 5 4 10 0 6 -5 10 -11 10 -5 0
-7 -4 -4 -10z"/>
<path d="M3536 3594 c-3 -7 2 -10 15 -7 22 6 26 20 4 20 -8 0 -16 -6 -19 -13z"/>
<path d="M3633 3598 c3 -9 1 -19 -6 -22 -9 -3 -9 -5 0 -5 18 -1 23 13 11 29
-8 12 -9 12 -5 -2z"/>
<path d="M3915 3600 c3 -5 8 -10 11 -10 2 0 4 5 4 10 0 6 -5 10 -11 10 -5 0
-7 -4 -4 -10z"/>
<path d="M3468 3575 c6 -11 11 -24 12 -30 1 -5 4 -12 7 -15 4 -3 2 1 -2 9 -6
11 -4 13 8 8 11 -4 14 -2 10 9 -3 8 -8 12 -11 10 -3 -3 -11 2 -19 12 -13 16
-13 15 -5 -3z"/>
<path d="M3587 3575 c3 -8 9 -12 14 -9 12 7 11 11 -5 17 -10 4 -13 1 -9 -8z"/>
<path d="M3948 3575 c6 -11 11 -24 12 -30 1 -5 4 -12 7 -15 4 -3 2 1 -2 9 -6
11 -4 13 8 8 11 -4 14 -2 10 9 -3 8 -8 12 -11 10 -3 -3 -11 2 -19 12 -13 16
-13 15 -5 -3z"/>
<path d="M3516 3567 c3 -10 9 -15 12 -12 3 3 0 11 -7 18 -10 9 -11 8 -5 -6z"/>
<path d="M3838 3573 c7 -3 16 -2 19 1 4 3 -2 6 -13 5 -11 0 -14 -3 -6 -6z"/>
<path d="M3990 3576 c0 -2 8 -10 18 -17 15 -13 16 -12 3 4 -13 16 -21 21 -21
13z"/>
<path d="M3010 3560 c0 -5 5 -10 10 -10 6 0 10 5 10 10 0 6 -4 10 -10 10 -5 0
-10 -4 -10 -10z"/>
<path d="M3067 3548 c-5 -21 -5 -21 7 -6 7 10 17 14 21 10 5 -4 5 -1 1 6 -11
19 -23 14 -29 -10z"/>
<path d="M3155 3560 c3 -5 8 -10 11 -10 2 0 4 5 4 10 0 6 -5 10 -11 10 -5 0
-7 -4 -4 -10z"/>
<path d="M3201 3552 c-7 -14 -6 -19 4 -19 7 0 11 7 7 15 -4 11 -1 13 8 7 9 -5
11 -4 6 3 -10 16 -14 15 -25 -6z"/>
<path d="M3400 3560 c-12 -7 -10 -9 8 -7 12 0 22 5 22 9 0 11 -12 10 -30 -2z"/>
<path d="M3710 3559 c0 -5 5 -7 10 -4 6 3 10 8 10 11 0 2 -4 4 -10 4 -5 0 -10
-5 -10 -11z"/>
<path d="M3784 3558 c-4 -7 -4 -10 1 -6 4 4 14 0 21 -10 12 -15 12 -15 7 6 -6
24 -18 29 -29 10z"/>
<path d="M3879 3553 c-12 -16 -12 -17 2 -6 9 7 19 10 22 6 4 -3 7 -1 7 5 0 17
-16 15 -31 -5z"/>
<path d="M3113 3543 c4 -3 1 -13 -6 -22 -11 -14 -10 -14 6 -2 20 15 22 31 5
31 -6 0 -8 -3 -5 -7z"/>
<path d="M3364 3539 c-3 -6 -2 -15 4 -21 6 -6 12 -6 17 3 6 8 4 10 -5 4 -10
-6 -12 -4 -7 8 7 19 2 23 -9 6z"/>
<path d="M3585 3540 c-3 -6 1 -7 9 -4 18 7 21 14 7 14 -6 0 -13 -4 -16 -10z"/>
<path d="M3750 3543 c0 -5 5 -15 10 -23 7 -12 9 -10 7 8 -1 19 -17 33 -17 15z"/>
<path d="M3842 3538 c-7 -7 -12 -15 -12 -19 0 -9 27 -5 37 6 5 4 2 5 -6 0 -11
-6 -13 -4 -8 8 8 20 5 21 -11 5z"/>
<path d="M3255 3530 c-4 -6 -11 -8 -16 -5 -5 4 -9 2 -9 -3 0 -5 8 -12 18 -14
12 -4 18 1 18 13 0 22 -2 23 -11 9z"/>
<path d="M3432 3535 c4 -4 0 -14 -10 -21 -15 -12 -15 -12 6 -7 24 6 29 18 10
29 -7 4 -10 4 -6 -1z"/>
<path d="M3536 3526 c3 -7 11 -13 19 -13 22 0 18 14 -4 20 -13 3 -18 0 -15 -7z"/>
<path d="M3912 3535 c4 -4 0 -14 -10 -21 -15 -12 -15 -12 6 -7 24 6 29 18 10
29 -7 4 -10 4 -6 -1z"/>
<path d="M3035 3520 c-3 -5 -1 -10 4 -10 6 0 11 5 11 10 0 6 -2 10 -4 10 -3 0
-8 -4 -11 -10z"/>
<path d="M3510 3521 c0 -6 4 -13 10 -16 6 -3 7 1 4 9 -7 18 -14 21 -14 7z"/>
<path d="M3990 3525 c0 -5 5 -17 10 -25 5 -8 10 -10 10 -5 0 6 -5 17 -10 25
-5 8 -10 11 -10 5z"/>
<path d="M3076 3501 c-3 -5 0 -14 8 -20 10 -9 15 -8 19 3 4 11 1 13 -10 9 -11
-4 -14 -2 -9 5 4 7 5 12 2 12 -3 0 -7 -4 -10 -9z"/>
<path d="M3200 3491 c-7 -15 -7 -19 5 -17 8 1 18 6 22 11 5 4 2 5 -6 0 -11 -6
-13 -4 -8 8 9 23 0 21 -13 -2z"/>
<path d="M3468 3492 c4 -11 1 -13 -8 -7 -9 5 -11 4 -6 -3 10 -16 14 -15 25 6
7 14 6 19 -4 19 -7 0 -11 -7 -7 -15z"/>
<path d="M3588 3496 c5 -11 17 -21 26 -22 9 -1 13 2 10 8 -3 5 -8 7 -12 4 -3
-3 -11 2 -19 12 -13 16 -14 16 -5 -2z"/>
<path d="M3795 3500 c6 -10 4 -12 -11 -6 -15 6 -17 5 -6 -5 9 -9 15 -10 23 -2
8 8 7 13 -2 18 -8 6 -10 4 -4 -5z"/>
<path d="M3956 3501 c-3 -5 0 -14 8 -20 10 -9 15 -8 19 3 4 11 1 13 -10 9 -11
-4 -14 -2 -9 5 4 7 5 12 2 12 -3 0 -7 -4 -10 -9z"/>
<path d="M3131 3484 c0 -11 3 -14 6 -6 3 7 2 16 -1 19 -3 4 -6 -2 -5 -13z"/>
<path d="M3279 3498 c-5 -9 -5 -48 -1 -43 6 6 11 45 5 45 -2 0 -4 -1 -4 -2z"/>
<path d="M3740 3491 c0 -6 4 -13 10 -16 6 -3 7 1 4 9 -7 18 -14 21 -14 7z"/>
<path d="M3380 3475 c-11 -13 -10 -14 5 -9 14 6 16 4 10 -7 -5 -8 -4 -11 0 -6
12 10 15 37 5 37 -4 0 -13 -7 -20 -15z"/>
<path d="M3673 3472 c0 -12 5 -22 9 -22 11 0 10 12 -2 30 -7 12 -9 10 -7 -8z"/>
<path d="M3870 3479 c0 -5 5 -7 10 -4 6 3 10 8 10 11 0 2 -4 4 -10 4 -5 0 -10
-5 -10 -11z"/>
<path d="M3922 3478 c-15 -15 -15 -28 0 -28 6 0 8 3 5 7 -4 3 -2 12 4 20 14
16 7 17 -9 1z"/>
<path d="M4046 3477 c3 -10 9 -15 12 -12 3 3 0 11 -7 18 -10 9 -11 8 -5 -6z"/>
<path d="M3039 3475 c-1 -3 -2 -8 -3 -12 -1 -5 -5 -15 -10 -23 -7 -12 -6 -13
4 -3 13 12 23 43 14 43 -2 0 -5 -2 -5 -5z"/>
<path d="M3106 3463 c-6 -14 -5 -15 5 -6 7 7 10 15 7 18 -3 3 -9 -2 -12 -12z"/>
<path d="M3986 3463 c-6 -14 -5 -15 5 -6 7 7 10 15 7 18 -3 3 -9 -2 -12 -12z"/>
<path d="M2935 3461 c-9 -15 15 -25 28 -12 9 9 7 10 -7 5 -13 -5 -17 -4 -12 4
4 7 5 12 2 12 -3 0 -7 -4 -11 -9z"/>
<path d="M3833 3455 c0 -8 4 -12 9 -9 5 3 6 10 3 15 -9 13 -12 11 -12 -6z"/>
<path d="M3448 3453 c-21 -5 -23 -19 -5 -29 6 -4 9 -4 5 1 -4 4 0 14 10 21 18
14 17 14 -10 7z"/>
<path d="M3057 3436 c-4 -10 1 -12 14 -9 23 6 24 9 5 16 -8 3 -17 0 -19 -7z"/>
<path d="M3227 3431 c-3 -13 -1 -18 9 -14 7 2 10 11 7 19 -7 19 -10 18 -16 -5z"/>
<path d="M3356 3434 c-8 -20 -8 -24 2 -24 4 0 8 9 9 20 2 24 -3 26 -11 4z"/>
<path d="M3640 3438 c-12 -8 -12 -9 2 -5 9 3 19 1 22 -6 3 -9 5 -9 5 0 1 18
-13 23 -29 11z"/>
<path d="M3936 3434 c-3 -7 2 -10 15 -7 22 6 26 20 4 20 -8 0 -16 -6 -19 -13z"/>
<path d="M4027 3431 c-3 -13 -1 -18 9 -14 7 2 10 11 7 19 -7 19 -10 18 -16 -5z"/>
<path d="M3395 3400 c0 -15 5 -27 10 -27 6 0 10 12 10 27 0 15 -4 27 -10 27
-5 0 -10 -12 -10 -27z"/>
<path d="M3987 3413 c5 -12 3 -14 -7 -8 -9 5 -11 4 -6 -4 6 -9 11 -9 22 0 17
14 17 16 0 22 -11 4 -13 1 -9 -10z"/>
<path d="M3474 3409 c-3 -6 -2 -15 3 -20 5 -5 9 -1 9 11 0 23 -2 24 -12 9z"/>
<path d="M3901 3404 c0 -11 3 -14 6 -6 3 7 2 16 -1 19 -3 4 -6 -2 -5 -13z"/>
<path d="M2924 3403 c4 -4 16 -8 28 -10 12 -2 19 -1 16 2 -3 3 -16 8 -28 10
-12 2 -20 1 -16 -2z"/>
<path d="M3036 3395 c-9 -26 -7 -32 5 -12 6 10 9 21 6 23 -2 3 -7 -2 -11 -11z"/>
<path d="M3170 3402 c0 -4 11 -8 25 -8 28 0 24 8 -5 13 -11 2 -20 -1 -20 -5z"/>
<path d="M3516 3395 c-11 -8 -15 -15 -9 -15 7 0 15 5 18 10 4 6 11 8 16 5 5
-4 9 -1 9 4 0 15 -11 13 -34 -4z"/>
<path d="M3670 3396 c7 -7 13 -7 20 0 6 6 3 10 -10 10 -13 0 -16 -4 -10 -10z"/>
<path d="M3827 3399 c7 -7 15 -10 18 -7 3 3 -2 9 -12 12 -14 6 -15 5 -6 -5z"/>
<path d="M4040 3400 c-9 -6 -10 -10 -3 -10 6 0 15 5 18 10 8 12 4 12 -15 0z"/>
<path d="M3107 3386 c-4 -10 -1 -13 8 -9 8 3 12 9 9 14 -7 12 -11 11 -17 -5z"/>
<path d="M3590 3396 c0 -2 7 -9 15 -16 13 -11 14 -10 9 4 -5 14 -24 23 -24 12z"/>
<path d="M2907 3369 c6 -23 9 -24 16 -5 3 8 0 17 -7 19 -10 4 -12 -1 -9 -14z"/>
<path d="M3147 3369 c6 -23 9 -24 16 -5 3 8 0 17 -7 19 -10 4 -12 -1 -9 -14z"/>
<path d="M3266 3376 c6 -15 4 -17 -6 -11 -9 6 -11 4 -5 -4 5 -9 10 -10 18 -2
8 8 7 14 -2 24 -10 10 -11 8 -5 -7z"/>
<path d="M3563 3382 c-7 -4 -9 -13 -4 -21 6 -9 10 -7 14 8 3 12 4 21 4 21 -1
0 -7 -4 -14 -8z"/>
<path d="M3790 3374 c6 -6 7 -14 3 -17 -3 -4 -2 -7 4 -7 6 0 13 8 15 18 4 12
-1 18 -13 18 -12 0 -15 -4 -9 -12z"/>
<path d="M4002 3382 c-10 -7 -8 -12 6 -25 15 -14 19 -14 19 -2 0 8 -5 11 -10
8 -6 -4 -8 0 -4 10 7 19 7 20 -11 9z"/>
<path d="M4067 3373 c5 -12 3 -14 -8 -8 -8 5 -11 4 -6 0 4 -5 13 -10 21 -11
16 -2 17 24 0 30 -9 3 -11 -1 -7 -11z"/>
<path d="M3056 3366 c3 -7 11 -13 19 -13 22 0 18 14 -4 20 -13 3 -18 0 -15 -7z"/>
<path d="M3437 3373 c-10 -9 -9 -23 1 -23 5 0 9 7 9 15 0 17 -1 18 -10 8z"/>
<path d="M3356 3355 c-9 -26 -7 -32 5 -12 6 10 9 21 6 23 -2 3 -7 -2 -11 -11z"/>
<path d="M3630 3359 c0 -3 9 -9 19 -12 13 -3 18 0 15 7 -5 13 -34 18 -34 5z"/>
<path d="M3697 3356 c-4 -10 1 -12 14 -9 23 6 24 9 5 16 -8 3 -17 0 -19 -7z"/>
<path d="M3957 3356 c-3 -8 0 -17 7 -19 10 -4 12 1 9 14 -6 23 -9 24 -16 5z"/>
<path d="M3199 3358 c-6 -21 -5 -37 2 -32 5 3 6 10 3 16 -5 8 -1 9 10 5 10 -4
15 -3 11 3 -5 9 -24 14 -26 8z"/>
<path d="M3106 3337 c3 -10 9 -15 12 -12 3 3 0 11 -7 18 -10 9 -11 8 -5 -6z"/>
<path d="M3396 3338 c5 -7 2 -9 -9 -5 -11 4 -14 2 -10 -9 4 -11 9 -12 19 -3
12 10 11 29 -2 29 -3 0 -2 -5 2 -12z"/>
<path d="M3597 3333 c3 -7 6 -13 8 -13 2 0 5 6 8 13 3 8 -1 14 -8 14 -7 0 -11
-6 -8 -14z"/>
<path d="M3759 3348 c0 -2 -2 -13 -3 -26 -3 -21 -2 -21 16 -5 22 20 23 24 1
16 -11 -4 -14 -3 -9 5 4 7 5 12 2 12 -3 0 -6 -1 -7 -2z"/>
<path d="M4107 3329 c4 -13 8 -18 11 -10 2 7 -1 18 -6 23 -8 8 -9 4 -5 -13z"/>
<path d="M2895 3330 c-4 -6 -11 -7 -17 -4 -6 4 -6 -2 1 -15 14 -25 23 -28 14
-4 -4 10 -2 14 4 10 5 -3 10 0 10 8 0 18 -3 19 -12 5z"/>
<path d="M3530 3330 c-9 -6 -10 -10 -3 -10 6 0 15 5 18 10 8 12 4 12 -15 0z"/>
<path d="M3576 3327 c3 -10 9 -15 12 -12 3 3 0 11 -7 18 -10 9 -11 8 -5 -6z"/>
<path d="M3817 3329 c7 -7 15 -10 18 -7 3 3 -2 9 -12 12 -14 6 -15 5 -6 -5z"/>
<path d="M3914 3320 c0 -13 4 -16 10 -10 7 7 7 13 0 20 -6 6 -10 3 -10 -10z"/>
<path d="M3994 3329 c-3 -6 -2 -15 3 -20 5 -5 9 -1 9 11 0 23 -2 24 -12 9z"/>
<path d="M2950 3321 c0 -6 4 -13 10 -16 6 -3 7 1 4 9 -7 18 -14 21 -14 7z"/>
<path d="M3081 3316 c-9 -11 -9 -16 0 -22 8 -5 9 -3 4 6 -6 10 -4 12 8 7 11
-4 14 -2 10 9 -6 17 -8 17 -22 0z"/>
<path d="M3233 3323 c4 -3 2 -11 -3 -18 -7 -8 -5 -12 5 -12 8 0 11 5 8 10 -4
7 1 8 12 3 15 -5 16 -4 5 9 -7 8 -17 15 -23 15 -6 0 -7 -3 -4 -7z"/>
<path d="M3617 3316 c-4 -11 -1 -13 10 -9 10 4 14 2 10 -4 -3 -5 0 -10 8 -10
13 0 12 4 -2 19 -19 22 -19 22 -26 4z"/>
<path d="M3666 3322 c-2 -4 4 -8 14 -8 10 0 16 4 14 8 -3 4 -9 8 -14 8 -5 0
-11 -4 -14 -8z"/>
<path d="M3850 3320 c0 -5 5 -10 10 -10 6 0 10 5 10 10 0 6 -4 10 -10 10 -5 0
-10 -4 -10 -10z"/>
<path d="M4030 3320 c0 -5 5 -10 10 -10 6 0 10 5 10 10 0 6 -4 10 -10 10 -5 0
-10 -4 -10 -10z"/>
<path d="M3000 3311 c0 -6 4 -13 10 -16 6 -3 7 1 4 9 -7 18 -14 21 -14 7z"/>
<path d="M3356 3311 c-3 -5 1 -11 9 -14 9 -4 12 -1 8 9 -6 16 -10 17 -17 5z"/>
<path d="M3433 3305 c0 -8 4 -15 9 -15 4 0 8 4 8 9 0 6 -4 12 -8 15 -5 3 -9
-1 -9 -9z"/>
<path d="M3706 3303 c-6 -14 -5 -15 5 -6 7 7 10 15 7 18 -3 3 -9 -2 -12 -12z"/>
<path d="M3963 3302 c-7 -4 -9 -13 -4 -21 6 -9 10 -7 14 8 3 12 4 21 4 21 -1
0 -7 -4 -14 -8z"/>
<path d="M2928 3293 c-22 -5 -24 -20 -3 -20 8 0 16 6 19 14 3 7 4 12 3 12 -1
-1 -10 -3 -19 -6z"/>
<path d="M3036 3287 c3 -10 9 -15 12 -12 3 3 0 11 -7 18 -10 9 -11 8 -5 -6z"/>
<path d="M3777 3284 c2 -7 11 -10 19 -7 19 7 18 10 -5 16 -13 3 -18 1 -14 -9z"/>
<path d="M4010 3290 c-9 -6 -10 -10 -3 -10 6 0 15 5 18 10 8 12 4 12 -15 0z"/>
<path d="M2855 3280 c-3 -5 -1 -10 4 -10 6 0 11 5 11 10 0 6 -2 10 -4 10 -3 0
-8 -4 -11 -10z"/>
<path d="M3113 3272 c0 -12 5 -22 9 -22 11 0 10 12 -2 30 -7 12 -9 10 -7 -8z"/>
<path d="M3196 3273 c-6 -14 -5 -15 5 -6 7 7 10 15 7 18 -3 3 -9 -2 -12 -12z"/>
<path d="M3270 3285 c0 -5 5 -17 10 -25 5 -8 10 -10 10 -5 0 6 -5 17 -10 25
-5 8 -10 11 -10 5z"/>
<path d="M3402 3281 c-11 -6 -9 -9 6 -13 15 -4 19 -2 15 8 -6 16 -4 16 -21 5z"/>
<path d="M3596 3275 c-9 -26 -7 -32 5 -12 6 10 9 21 6 23 -2 3 -7 -2 -11 -11z"/>
<path d="M3670 3280 c0 -5 5 -10 10 -10 6 0 10 5 10 10 0 6 -4 10 -10 10 -5 0
-10 -4 -10 -10z"/>
<path d="M4055 3279 c-6 -8 -4 -10 5 -4 10 6 12 4 6 -11 -6 -15 -5 -17 5 -6 9
9 10 15 2 23 -8 8 -13 7 -18 -2z"/>
<path d="M3830 3270 c-9 -6 -10 -10 -3 -10 6 0 15 5 18 10 8 12 4 12 -15 0z"/>
<path d="M2880 3251 c-7 -15 -7 -19 5 -17 8 1 18 6 22 11 5 4 2 5 -6 0 -11 -6
-13 -4 -8 8 9 23 0 21 -13 -2z"/>
<path d="M3068 3248 c5 -21 17 -23 28 -6 5 7 3 8 -6 3 -9 -6 -12 -4 -8 7 4 8
1 15 -7 15 -7 0 -10 -8 -7 -19z"/>
<path d="M3239 3268 c-11 -38 -1 -49 21 -23 11 13 10 14 -5 9 -13 -5 -16 -4
-11 4 4 7 5 12 2 12 -3 0 -6 -1 -7 -2z"/>
<path d="M3350 3263 c5 -2 8 -9 5 -13 -3 -5 3 -13 13 -19 14 -7 19 -6 19 4 0
7 -7 11 -14 8 -8 -3 -13 0 -11 7 2 7 -3 14 -10 16 -7 1 -8 0 -2 -3z"/>
<path d="M3635 3261 c6 -11 4 -13 -10 -7 -15 5 -16 4 -5 -9 7 -8 16 -15 20
-15 10 0 7 27 -5 37 -4 5 -5 2 0 -6z"/>
<path d="M3715 3261 c-9 -15 15 -25 28 -12 9 9 7 10 -7 5 -13 -5 -17 -4 -12 4
4 7 5 12 2 12 -3 0 -7 -4 -11 -9z"/>
<path d="M3420 3235 c-11 -13 -10 -14 4 -9 9 3 16 10 16 15 0 13 -6 11 -20 -6z"/>
<path d="M3901 3234 c0 -11 3 -14 6 -6 3 7 2 16 -1 19 -3 4 -6 -2 -5 -13z"/>
<path d="M3974 3238 c-5 -7 -3 -8 6 -3 10 6 12 4 7 -8 -4 -11 -2 -14 9 -10 11
4 12 9 3 19 -14 17 -16 17 -25 2z"/>
<path d="M4027 3209 c6 -23 9 -24 16 -5 3 8 0 17 -7 19 -10 4 -12 -1 -9 -14z"/>
<path d="M4150 3223 c0 -5 5 -15 10 -23 7 -12 9 -10 7 8 -1 19 -17 33 -17 15z"/>
<path d="M3046 3211 c-19 -7 -19 -8 0 -13 13 -3 21 0 21 8 0 8 -1 14 -1 13 -1
0 -10 -4 -20 -8z"/>
<path d="M3204 3205 c-10 -8 -14 -15 -9 -15 6 0 3 -5 -5 -11 -10 -7 -11 -9 -2
-7 8 2 13 7 12 12 -1 4 7 14 17 22 10 7 15 14 12 14 -3 0 -14 -7 -25 -15z"/>
<path d="M3658 3208 c5 -5 16 -8 23 -6 8 3 3 7 -10 11 -17 4 -21 3 -13 -5z"/>
<path d="M3934 3199 c0 -12 4 -15 12 -9 6 6 14 7 17 3 4 -3 7 -2 7 4 0 6 -8
13 -18 15 -12 4 -18 -1 -18 -13z"/>
<path d="M2913 3198 c3 -9 1 -19 -6 -22 -9 -3 -9 -5 0 -5 18 -1 23 13 11 29
-8 12 -9 12 -5 -2z"/>
<path d="M3093 3197 c-4 -6 -1 -7 7 -2 10 6 12 4 7 -8 -4 -10 -2 -14 7 -11 7
3 13 11 13 18 0 15 -25 17 -34 3z"/>
<path d="M3255 3199 c-3 -4 2 -6 10 -5 21 3 28 13 10 13 -9 0 -18 -4 -20 -8z"/>
<path d="M3387 3191 c-3 -13 0 -18 7 -15 7 3 13 11 13 19 0 22 -14 18 -20 -4z"/>
<path d="M3473 3198 c3 -9 1 -19 -6 -22 -9 -3 -9 -5 0 -5 18 -1 23 13 11 29
-8 12 -9 12 -5 -2z"/>
<path d="M3594 3202 c4 -3 14 -7 22 -8 9 -1 13 0 10 4 -4 3 -14 7 -22 8 -9 1
-13 0 -10 -4z"/>
<path d="M3910 3184 c0 -5 7 -18 15 -28 8 -11 15 -16 15 -10 0 5 -7 18 -15 28
-8 11 -15 16 -15 10z"/>
<path d="M3990 3172 c6 -12 15 -20 20 -17 4 3 11 0 13 -5 4 -7 5 -6 4 0 -2 7
-6 10 -9 8 -4 -2 -14 6 -23 17 -16 19 -16 19 -5 -3z"/>
<path d="M2955 3170 c-4 -6 -11 -8 -16 -5 -5 4 -9 1 -9 -4 0 -16 16 -13 30 4
7 8 10 15 7 15 -3 0 -9 -5 -12 -10z"/>
<path d="M3155 3170 c-4 -6 -11 -8 -16 -5 -5 4 -9 1 -9 -4 0 -16 16 -13 30 4
7 8 10 15 7 15 -3 0 -9 -5 -12 -10z"/>
<path d="M3356 3165 c10 -8 23 -15 28 -15 6 0 1 7 -10 15 -10 8 -23 15 -28 15
-6 0 -1 -7 10 -15z"/>
<path d="M3519 3178 c-6 -21 -5 -37 2 -32 5 3 7 9 4 14 -3 4 1 11 7 13 10 4
10 6 1 6 -7 1 -13 0 -14 -1z"/>
<path d="M3639 3167 c7 -9 17 -15 21 -12 5 3 11 1 15 -5 3 -5 12 -10 18 -10
11 1 -21 24 -33 25 -3 0 -12 4 -20 10 -13 8 -13 7 -1 -8z"/>
<path d="M3719 3178 c-5 -18 -6 -38 -1 -34 7 8 12 36 6 36 -2 0 -4 -1 -5 -2z"/>
<path d="M4054 3169 c1 -7 10 -13 19 -15 9 -1 15 2 11 7 -3 5 -9 7 -14 4 -4
-3 -11 0 -13 5 -3 6 -4 5 -3 -1z"/>
<path d="M4173 3165 c0 -8 4 -12 9 -9 5 3 6 10 3 15 -9 13 -12 11 -12 -6z"/>
<path d="M2999 3153 c-12 -16 -12 -17 2 -6 9 7 19 10 22 6 4 -3 7 -1 7 5 0 17
-16 15 -31 -5z"/>
<path d="M3050 3158 c0 -11 12 -10 30 2 12 7 10 9 -8 7 -12 0 -22 -5 -22 -9z"/>
<path d="M3580 3160 c8 -5 20 -10 25 -10 6 0 3 5 -5 10 -8 5 -19 10 -25 10 -5
0 -3 -5 5 -10z"/>
<path d="M3780 3160 c8 -5 20 -10 25 -10 6 0 3 5 -5 10 -8 5 -19 10 -25 10 -5
0 -3 -5 5 -10z"/>
<path d="M3874 3155 c1 -8 6 -18 11 -22 4 -5 5 -2 0 6 -6 11 -4 13 8 8 23 -9
21 0 -2 13 -15 7 -19 7 -17 -5z"/>
<path d="M2868 3143 c6 -2 18 -2 25 0 6 3 1 5 -13 5 -14 0 -19 -2 -12 -5z"/>
<path d="M2960 3131 c-7 -15 -7 -19 5 -17 8 1 18 6 22 11 5 4 2 5 -6 0 -11 -6
-13 -4 -8 8 9 23 0 21 -13 -2z"/>
<path d="M3198 3143 c7 -3 16 -2 19 1 4 3 -2 6 -13 5 -11 0 -14 -3 -6 -6z"/>
<path d="M3565 3142 c-13 -9 -17 -32 -6 -32 5 0 11 9 14 20 6 22 6 22 -8 12z"/>
<path d="M3627 3129 c6 -22 20 -26 20 -4 0 8 -6 16 -13 19 -7 3 -10 -2 -7 -15z"/>
<path d="M3760 3140 c-8 -5 -11 -10 -6 -10 6 0 1 -7 -10 -16 -19 -15 -19 -15
1 -6 11 6 23 9 27 9 3 -1 10 2 15 7 5 6 2 6 -6 1 -11 -6 -13 -4 -8 8 7 20 7
20 -13 7z"/>
<path d="M3830 3136 c13 -18 13 -19 -1 -14 -9 4 -16 1 -16 -7 0 -7 8 -10 19
-7 23 6 23 16 1 33 -17 13 -17 13 -3 -5z"/>
<path d="M4177 3124 c2 -7 11 -10 19 -7 19 7 18 10 -5 16 -13 3 -18 1 -14 -9z"/>
<path d="M3275 3119 c-3 -4 2 -6 10 -5 21 3 28 13 10 13 -9 0 -18 -4 -20 -8z"/>
<path d="M3907 3119 c7 -9 10 -19 6 -22 -3 -4 -1 -7 5 -7 17 0 15 16 -5 31
-16 12 -17 12 -6 -2z"/>
<path d="M4122 3121 c-11 -6 -9 -9 6 -13 15 -4 19 -2 15 8 -6 16 -4 16 -21 5z"/>
<path d="M2790 3116 c0 -2 9 -6 20 -9 11 -3 18 -1 14 4 -5 9 -34 13 -34 5z"/>
<path d="M3016 3111 c-4 -5 3 -7 14 -4 23 6 26 13 6 13 -8 0 -17 -4 -20 -9z"/>
<path d="M3336 3111 c-4 -5 3 -7 14 -4 23 6 26 13 6 13 -8 0 -17 -4 -20 -9z"/>
<path d="M3867 3093 c6 -25 18 -30 29 -10 4 6 4 9 -1 5 -4 -4 -14 0 -21 10
-12 15 -12 15 -7 -5z"/>
<path d="M3530 3091 c-8 -6 -17 -8 -21 -5 -4 2 -11 0 -14 -6 -4 -6 -3 -10 2
-9 20 4 27 -2 13 -12 -10 -7 -11 -9 -2 -7 8 2 13 7 12 12 -1 4 7 14 17 22 20
15 16 19 -7 5z"/>
<path d="M3577 3085 c3 -8 9 -12 14 -9 12 7 11 11 -5 17 -10 4 -13 1 -9 -8z"/>
<path d="M3615 3089 c-4 -6 -5 -12 -2 -15 2 -3 7 2 10 11 7 17 1 20 -8 4z"/>
<path d="M3657 3089 c7 -7 15 -10 18 -7 3 3 -2 9 -12 12 -14 6 -15 5 -6 -5z"/>
<path d="M2835 3080 c3 -5 8 -10 11 -10 2 0 4 5 4 10 0 6 -5 10 -11 10 -5 0
-7 -4 -4 -10z"/>
<path d="M2980 3075 c-11 -13 -10 -14 5 -9 14 6 16 4 10 -7 -5 -8 -4 -11 0 -6
12 10 15 37 5 37 -4 0 -13 -7 -20 -15z"/>
<path d="M3176 3082 c-3 -4 4 -9 15 -9 23 -2 25 3 4 10 -8 4 -16 3 -19 -1z"/>
<path d="M3300 3075 c-11 -13 -10 -14 5 -9 14 6 16 4 10 -7 -5 -8 -4 -11 0 -6
12 10 15 37 5 37 -4 0 -13 -7 -20 -15z"/>
<path d="M3710 3079 c0 -5 5 -7 10 -4 6 3 10 8 10 11 0 2 -4 4 -10 4 -5 0 -10
-5 -10 -11z"/>
<path d="M3784 3078 c-4 -7 -4 -10 1 -6 4 4 14 0 21 -10 12 -15 12 -15 7 6 -6
24 -18 29 -29 10z"/>
<path d="M3955 3080 c-3 -5 -1 -10 4 -10 6 0 11 5 11 10 0 6 -2 10 -4 10 -3 0
-8 -4 -11 -10z"/>
<path d="M4006 3082 c-3 -5 1 -9 9 -9 8 0 15 4 15 9 0 4 -4 8 -9 8 -6 0 -12
-4 -15 -8z"/>
<path d="M4150 3083 c0 -5 5 -15 10 -23 7 -12 9 -10 7 8 -1 19 -17 33 -17 15z"/>
<path d="M4206 3082 c-3 -5 1 -9 9 -9 8 0 15 4 15 9 0 4 -4 8 -9 8 -6 0 -12
-4 -15 -8z"/>
<path d="M3075 3071 c-3 -5 -2 -12 3 -15 5 -3 9 1 9 9 0 17 -3 19 -12 6z"/>
<path d="M3395 3071 c-3 -5 0 -13 6 -17 8 -5 9 -3 4 6 -6 10 -4 12 9 7 10 -4
15 -3 11 3 -8 13 -22 13 -30 1z"/>
<path d="M4076 3071 c-3 -5 1 -11 9 -14 9 -4 12 -1 8 9 -6 16 -10 17 -17 5z"/>
<path d="M2796 3055 c-9 -26 -7 -32 5 -12 6 10 9 21 6 23 -2 3 -7 -2 -11 -11z"/>
<path d="M2950 3065 c0 -5 5 -17 10 -25 5 -8 10 -10 10 -5 0 6 -5 17 -10 25
-5 8 -10 11 -10 5z"/>
<path d="M3270 3065 c0 -5 5 -17 10 -25 5 -8 10 -10 10 -5 0 6 -5 17 -10 25
-5 8 -10 11 -10 5z"/>
<path d="M3750 3063 c0 -5 5 -15 10 -23 7 -12 9 -10 7 8 -1 19 -17 33 -17 15z"/>
<path d="M4043 3062 c-7 -4 -9 -13 -4 -21 6 -9 10 -7 14 8 3 12 4 21 4 21 -1
0 -7 -4 -14 -8z"/>
<path d="M2878 3053 c7 -3 16 -2 19 1 4 3 -2 6 -13 5 -11 0 -14 -3 -6 -6z"/>
<path d="M3188 3053 c6 -2 18 -2 25 0 6 3 1 5 -13 5 -14 0 -19 -2 -12 -5z"/>
<path d="M3930 3051 c-8 -6 -17 -8 -21 -5 -4 2 -11 -1 -15 -7 -5 -8 -3 -9 6
-4 10 6 12 4 7 -8 -4 -11 -2 -14 9 -10 8 3 12 8 10 11 -3 3 2 11 12 18 19 15
14 18 -8 5z"/>
<path d="M4128 3053 c-22 -5 -24 -20 -3 -20 8 0 16 6 19 14 3 7 4 12 3 12 -1
-1 -10 -3 -19 -6z"/>
<path d="M3030 3040 c0 -5 5 -10 10 -10 6 0 10 5 10 10 0 6 -4 10 -10 10 -5 0
-10 -4 -10 -10z"/>
<path d="M3137 3036 c-4 -10 1 -12 14 -9 23 6 24 9 5 16 -8 3 -17 0 -19 -7z"/>
<path d="M3350 3040 c0 -5 5 -10 10 -10 6 0 10 5 10 10 0 6 -4 10 -10 10 -5 0
-10 -4 -10 -10z"/>
<path d="M3457 3036 c-4 -10 1 -12 14 -9 23 6 24 9 5 16 -8 3 -17 0 -19 -7z"/>
<path d="M3830 3040 c0 -4 7 -13 15 -20 13 -11 14 -10 9 5 -6 14 -4 16 7 10 8
-5 11 -4 6 0 -10 12 -37 15 -37 5z"/>
<path d="M3975 3041 c-3 -6 -3 -11 2 -10 19 3 27 -2 15 -10 -11 -7 -11 -9 1
-14 17 -6 17 17 0 34 -8 8 -13 8 -18 0z"/>
<path d="M2756 3021 c-3 -5 0 -14 8 -20 10 -9 15 -8 19 3 4 11 1 13 -10 9 -11
-4 -14 -2 -9 5 4 7 5 12 2 12 -3 0 -7 -4 -10 -9z"/>
<path d="M2996 3018 c5 -7 2 -9 -9 -5 -11 4 -14 2 -10 -9 4 -11 9 -12 19 -3
12 10 11 29 -2 29 -3 0 -2 -5 2 -12z"/>
<path d="M3066 3017 c3 -10 9 -15 12 -12 3 3 0 11 -7 18 -10 9 -11 8 -5 -6z"/>
<path d="M3316 3018 c5 -7 2 -9 -9 -5 -11 4 -14 2 -10 -9 4 -11 9 -12 19 -3
12 10 11 29 -2 29 -3 0 -2 -5 2 -12z"/>
<path d="M3386 3017 c3 -10 9 -15 12 -12 3 3 0 11 -7 18 -10 9 -11 8 -5 -6z"/>
<path d="M3519 3023 c-1 -5 -1 -12 0 -17 1 -5 -4 -6 -12 -3 -7 3 -14 -1 -14
-8 0 -10 5 -11 19 -4 10 6 16 14 13 19 -3 4 1 11 7 13 10 4 10 6 1 6 -7 1 -14
-2 -14 -6z"/>
<path d="M3795 3020 c6 -10 4 -12 -11 -6 -15 6 -17 5 -6 -5 9 -9 15 -10 23 -2
8 8 7 13 -2 18 -8 6 -10 4 -4 -5z"/>
<path d="M4085 3019 c-4 -6 -5 -12 -2 -15 2 -3 7 2 10 11 7 17 1 20 -8 4z"/>
<path d="M3115 3000 c1 -11 5 -23 10 -27 4 -5 4 -2 0 6 -6 11 -4 13 10 7 18
-7 18 -6 0 14 -22 25 -22 25 -20 0z"/>
<path d="M3435 3000 c1 -11 5 -23 10 -27 4 -5 4 -2 0 6 -6 11 -4 13 10 7 18
-7 18 -6 0 14 -22 25 -22 25 -20 0z"/>
<path d="M3740 3011 c0 -6 4 -13 10 -16 6 -3 7 1 4 9 -7 18 -14 21 -14 7z"/>
<path d="M3173 2996 c0 -6 13 -11 28 -11 32 0 29 11 -4 17 -13 3 -24 0 -24 -6z"/>
<path d="M3643 2997 c-3 -6 -1 -7 5 -3 5 3 12 1 14 -6 3 -8 6 -7 10 3 7 17
-19 22 -29 6z"/>
<path d="M3870 3006 c0 -2 7 -7 16 -10 8 -3 12 -2 9 4 -6 10 -25 14 -25 6z"/>
<path d="M4145 2999 c-4 -6 -5 -12 -2 -15 2 -3 7 2 10 11 7 17 1 20 -8 4z"/>
<path d="M4173 2994 c0 -7 7 -10 15 -6 11 4 13 1 7 -8 -5 -8 -4 -11 3 -6 6 4
9 12 6 20 -6 16 -31 17 -31 0z"/>
<path d="M2786 2983 c-6 -14 -5 -15 5 -6 7 7 10 15 7 18 -3 3 -9 -2 -12 -12z"/>
<path d="M2957 2987 c-3 -8 1 -14 8 -14 7 0 11 6 8 14 -3 7 -6 13 -8 13 -2 0
-5 -6 -8 -13z"/>
<path d="M3277 2987 c-3 -8 1 -14 8 -14 7 0 11 6 8 14 -3 7 -6 13 -8 13 -2 0
-5 -6 -8 -13z"/>
<path d="M2731 2987 c2 -1 13 -9 24 -17 19 -14 19 -14 6 3 -7 9 -18 17 -24 17
-6 0 -8 -1 -6 -3z"/>
<path d="M3867 2984 c7 -3 9 -13 6 -22 -4 -14 -3 -14 5 -2 12 16 7 30 -11 29
-9 0 -9 -2 0 -5z"/>
<path d="M3008 2973 c-10 -2 -18 -9 -18 -15 0 -6 3 -8 7 -5 3 4 11 3 17 -3 8
-6 12 -3 12 11 0 10 0 18 -1 18 0 -1 -8 -3 -17 -6z"/>
<path d="M3057 2964 c2 -7 11 -10 19 -7 19 7 18 10 -5 16 -13 3 -18 1 -14 -9z"/>
<path d="M3328 2973 c-22 -5 -24 -20 -3 -20 8 0 16 6 19 14 3 7 4 12 3 12 -1
-1 -10 -3 -19 -6z"/>
<path d="M3377 2964 c2 -7 11 -10 19 -7 19 7 18 10 -5 16 -13 3 -18 1 -14 -9z"/>
<path d="M2917 2956 c-3 -8 0 -17 7 -19 10 -4 12 1 9 14 -6 23 -9 24 -16 5z"/>
<path d="M3153 2955 c0 -8 6 -16 13 -19 7 -3 10 2 7 15 -6 22 -20 26 -20 4z"/>
<path d="M3237 2956 c-3 -8 0 -17 7 -19 10 -4 12 1 9 14 -6 23 -9 24 -16 5z"/>
<path d="M3473 2963 c4 -3 3 -11 -3 -17 -6 -8 -3 -12 9 -12 12 0 17 6 13 18
-2 10 -9 18 -15 18 -6 0 -7 -3 -4 -7z"/>
<path d="M4146 2958 c3 -4 9 -8 15 -8 5 0 9 4 9 8 0 5 -7 9 -15 9 -8 0 -12 -4
-9 -9z"/>
<path d="M2755 2920 c0 -15 5 -27 10 -27 6 0 10 12 10 27 0 15 -4 27 -10 27
-5 0 -10 -12 -10 -27z"/>
<path d="M2960 2935 c-7 -9 -8 -15 -2 -15 5 0 12 7 16 15 3 8 4 15 2 15 -2 0
-9 -7 -16 -15z"/>
<path d="M3280 2935 c-7 -9 -8 -15 -2 -15 5 0 12 7 16 15 3 8 4 15 2 15 -2 0
-9 -7 -16 -15z"/>
<path d="M3628 2935 c6 -11 11 -24 12 -30 1 -5 4 -12 7 -15 4 -3 2 1 -2 9 -6
11 -4 13 8 8 11 -4 14 -2 10 9 -3 8 -8 12 -11 10 -3 -3 -11 2 -19 12 -13 16
-13 15 -5 -3z"/>
<path d="M4204 2935 c-4 -8 -10 -13 -14 -10 -4 3 -10 -2 -13 -10 -4 -10 -1
-12 10 -8 10 4 14 2 10 -4 -3 -5 1 -10 9 -10 10 0 11 4 5 10 -7 7 -7 16 0 29
5 10 7 18 4 18 -3 0 -8 -7 -11 -15z"/>
<path d="M2736 2927 c3 -10 9 -15 12 -12 3 3 0 11 -7 18 -10 9 -11 8 -5 -6z"/>
<path d="M3509 2923 c-13 -16 -12 -17 4 -4 16 13 21 21 13 21 -2 0 -10 -8 -17
-17z"/>
<path d="M2880 2920 c18 -12 30 -13 30 -2 0 4 -10 9 -22 9 -18 2 -20 0 -8 -7z"/>
<path d="M3026 2922 c-2 -4 4 -8 14 -8 10 0 16 4 14 8 -3 4 -9 8 -14 8 -5 0
-11 -4 -14 -8z"/>
<path d="M3186 2922 c-2 -4 7 -8 20 -8 13 -1 24 1 24 5 0 9 -38 12 -44 3z"/>
<path d="M3346 2922 c-2 -4 4 -8 14 -8 10 0 16 4 14 8 -3 4 -9 8 -14 8 -5 0
-11 -4 -14 -8z"/>
<path d="M3560 2920 c-12 -7 -10 -9 8 -7 12 0 22 5 22 9 0 11 -12 10 -30 -2z"/>
<path d="M3837 2908 c20 -22 24 -23 16 -1 -5 12 -3 14 8 8 8 -4 11 -4 6 0 -4
5 -16 9 -27 10 -19 2 -19 1 -3 -17z"/>
<path d="M4040 2920 c-8 -5 -10 -10 -5 -10 6 0 17 5 25 10 8 5 11 10 5 10 -5
0 -17 -5 -25 -10z"/>
<path d="M4114 2914 c1 -8 6 -17 11 -21 4 -5 5 -2 0 6 -6 11 -4 13 8 8 10 -4
14 -2 11 7 -6 17 -32 16 -30 0z"/>
<path d="M3525 2902 c-5 -4 -11 -12 -12 -19 -3 -13 22 -12 34 2 5 4 2 5 -6 0
-11 -6 -13 -4 -8 8 7 19 6 20 -8 9z"/>
<path d="M3790 2894 c6 -6 7 -14 3 -17 -3 -4 -2 -7 4 -7 6 0 13 8 15 18 4 12
-1 18 -13 18 -12 0 -15 -4 -9 -12z"/>
<path d="M4004 2899 c-3 -6 -2 -15 4 -21 6 -6 12 -6 17 3 6 8 4 10 -5 4 -10
-6 -12 -4 -7 8 7 19 2 23 -9 6z"/>
<path d="M4070 2896 c13 -18 13 -19 -1 -14 -9 4 -16 1 -16 -7 0 -7 8 -10 19
-7 23 6 23 16 1 33 -17 13 -17 13 -3 -5z"/>
<path d="M2797 2893 c-10 -9 -9 -23 1 -23 5 0 9 7 9 15 0 17 -1 18 -10 8z"/>
<path d="M3006 2891 c-17 -6 -17 -8 -4 -14 10 -3 19 0 22 9 3 8 4 14 3 13 -1
0 -11 -4 -21 -8z"/>
<path d="M3326 2891 c-17 -6 -17 -8 -4 -14 10 -3 19 0 22 9 3 8 4 14 3 13 -1
0 -11 -4 -21 -8z"/>
<path d="M3592 2895 c4 -4 0 -14 -10 -21 -15 -12 -15 -12 6 -7 24 6 29 18 10
29 -7 4 -10 4 -6 -1z"/>
<path d="M3675 2889 c-4 -6 -5 -12 -2 -15 2 -3 7 2 10 11 7 17 1 20 -8 4z"/>
<path d="M4237 2893 c-12 -12 -7 -21 16 -26 20 -5 20 -5 5 7 -10 7 -15 16 -11
19 3 4 4 7 1 7 -2 0 -8 -3 -11 -7z"/>
<path d="M2701 2874 c0 -11 3 -14 6 -6 3 7 2 16 -1 19 -3 4 -6 -2 -5 -13z"/>
<path d="M3697 2876 c-4 -10 1 -12 14 -9 23 6 24 9 5 16 -8 3 -17 0 -19 -7z"/>
<path d="M3870 2879 c0 -3 9 -9 19 -12 13 -3 18 0 15 7 -5 13 -34 18 -34 5z"/>
<path d="M4150 2880 c0 -5 5 -10 10 -10 6 0 10 5 10 10 0 6 -4 10 -10 10 -5 0
-10 -4 -10 -10z"/>
<path d="M2756 2858 c5 -7 2 -9 -8 -6 -8 4 -15 0 -15 -7 0 -10 5 -11 19 -4 16
9 17 29 2 29 -3 0 -2 -5 2 -12z"/>
<path d="M3033 2848 c-2 -18 0 -20 7 -8 12 18 13 30 2 30 -4 0 -9 -10 -9 -22z"/>
<path d="M3353 2855 c0 -8 4 -12 9 -9 4 3 8 9 8 15 0 5 -4 9 -8 9 -5 0 -9 -7
-9 -15z"/>
<path d="M3628 2848 c6 -23 16 -23 33 0 13 16 13 16 -5 2 -18 -13 -19 -13 -14
1 4 9 1 16 -7 16 -7 0 -10 -8 -7 -19z"/>
<path d="M3759 2868 c0 -2 -2 -13 -3 -26 -3 -21 -2 -21 16 -5 22 20 23 24 1
16 -11 -4 -14 -3 -9 5 4 7 5 12 2 12 -3 0 -6 -1 -7 -2z"/>
<path d="M3837 2857 c4 -6 0 -8 -10 -4 -27 10 -19 0 11 -16 23 -11 29 -11 29
-1 0 7 -5 10 -10 7 -6 -4 -8 0 -5 9 4 8 0 15 -8 15 -7 0 -10 -5 -7 -10z"/>
<path d="M3965 2859 c-4 -6 -5 -12 -2 -15 2 -3 7 2 10 11 7 17 1 20 -8 4z"/>
<path d="M4108 2848 c5 -21 17 -23 28 -6 5 7 3 8 -6 3 -9 -6 -12 -4 -8 7 4 8
1 15 -7 15 -7 0 -10 -8 -7 -19z"/>
<path d="M4196 2858 c5 -7 2 -9 -9 -5 -11 4 -14 2 -10 -9 4 -11 9 -12 19 -3
12 10 11 29 -2 29 -3 0 -2 -5 2 -12z"/>
<path d="M3905 2840 c-18 -20 -18 -21 0 -14 14 6 16 4 10 -7 -4 -8 -4 -11 0
-6 7 6 16 47 10 47 -1 0 -10 -9 -20 -20z"/>
<path d="M2695 2839 c-6 -8 -4 -10 5 -4 10 6 12 4 6 -11 -6 -15 -5 -17 5 -6 9
9 10 15 2 23 -8 8 -13 7 -18 -2z"/>
<path d="M2949 2826 c-9 -19 -9 -19 4 -4 8 10 16 15 19 12 4 -3 8 -1 12 4 3 5
-2 9 -10 9 -8 0 -20 -10 -25 -21z"/>
<path d="M3288 2832 c4 -10 7 -12 10 -4 2 7 9 9 15 5 7 -3 8 -2 4 2 -14 16
-36 14 -29 -3z"/>
<path d="M3544 2838 c-4 -7 -4 -10 1 -6 4 4 14 0 21 -10 12 -15 12 -15 7 6 -6
24 -18 29 -29 10z"/>
<path d="M4020 2835 c-11 -13 -10 -14 5 -9 14 6 16 4 10 -7 -5 -8 -4 -11 0 -6
12 10 15 37 5 37 -4 0 -13 -7 -20 -15z"/>
<path d="M4265 2840 c-3 -6 1 -7 9 -4 18 7 21 14 7 14 -6 0 -13 -4 -16 -10z"/>
<path d="M3135 2830 c-4 -6 1 -7 11 -3 13 5 15 3 9 -7 -5 -9 -4 -11 4 -6 6 4
9 12 6 17 -8 12 -22 12 -30 -1z"/>
<path d="M3514 2825 c1 -8 8 -21 16 -28 12 -10 12 -9 2 4 -6 9 -9 18 -6 21 3
3 1 9 -4 12 -6 3 -9 -1 -8 -9z"/>
<path d="M3706 2823 c-6 -14 -5 -15 5 -6 7 7 10 15 7 18 -3 3 -9 -2 -12 -12z"/>
<path d="M3653 2805 c0 -8 5 -11 10 -8 7 4 8 -1 3 -12 -5 -15 -4 -16 9 -5 8 7
15 17 15 23 0 6 -3 7 -7 4 -3 -4 -11 -2 -18 3 -8 7 -12 5 -12 -5z"/>
<path d="M3777 2804 c2 -7 11 -10 19 -7 19 7 18 10 -5 16 -13 3 -18 1 -14 -9z"/>
<path d="M4088 2813 c-21 -5 -23 -19 -5 -29 6 -4 9 -4 5 1 -4 4 0 14 10 21 18
14 17 14 -10 7z"/>
<path d="M2675 2801 c-3 -5 -2 -12 3 -15 5 -3 9 1 9 9 0 17 -3 19 -12 6z"/>
<path d="M2747 2791 c-3 -13 -1 -18 9 -14 7 2 10 11 7 19 -7 19 -10 18 -16 -5z"/>
<path d="M2896 2794 c-3 -7 2 -10 15 -7 22 6 26 20 4 20 -8 0 -16 -6 -19 -13z"/>
<path d="M2993 2798 c3 -9 1 -19 -6 -22 -9 -3 -9 -5 0 -5 18 -1 23 13 11 29
-8 12 -9 12 -5 -2z"/>
<path d="M3116 2794 c-8 -20 -8 -24 2 -24 4 0 8 9 9 20 2 24 -3 26 -11 4z"/>
<path d="M3190 2801 c0 -6 4 -13 10 -16 6 -3 7 1 4 9 -7 18 -14 21 -14 7z"/>
<path d="M3270 2796 c7 -7 13 -7 20 0 6 6 3 10 -10 10 -13 0 -16 -4 -10 -10z"/>
<path d="M3480 2798 c-12 -8 -12 -9 2 -5 9 3 19 1 22 -6 3 -9 5 -9 5 0 1 18
-13 23 -29 11z"/>
<path d="M3590 2800 c0 -4 7 -13 15 -20 13 -11 14 -10 9 5 -6 14 -4 16 7 10 8
-5 11 -4 6 0 -10 12 -37 15 -37 5z"/>
<path d="M3867 2791 c-3 -13 -1 -18 9 -14 7 2 10 11 7 19 -7 19 -10 18 -16 -5z"/>
<path d="M3996 2793 c-6 -14 -5 -15 5 -6 7 7 10 15 7 18 -3 3 -9 -2 -12 -12z"/>
<path d="M4135 2799 c-3 -4 2 -6 10 -5 21 3 28 13 10 13 -9 0 -18 -4 -20 -8z"/>
<path d="M2870 2785 c0 -5 5 -17 10 -25 5 -8 10 -10 10 -5 0 6 -5 17 -10 25
-5 8 -10 11 -10 5z"/>
<path d="M2947 2775 c3 -8 9 -12 14 -9 12 7 11 11 -5 17 -10 4 -13 1 -9 -8z"/>
<path d="M3158 2772 c4 -11 1 -13 -8 -7 -9 5 -11 4 -6 -3 11 -17 23 -15 28 6
3 11 0 19 -7 19 -8 0 -11 -7 -7 -15z"/>
<path d="M3324 2775 c-4 -8 -11 -12 -17 -8 -6 3 -7 1 -3 -5 11 -18 23 -14 29
8 6 23 -1 27 -9 5z"/>
<path d="M3554 2776 c1 -8 5 -18 8 -22 4 -3 5 1 4 10 -1 8 -5 18 -8 22 -4 3
-5 -1 -4 -10z"/>
<path d="M3715 2781 c-9 -15 15 -25 28 -12 9 9 7 10 -7 5 -13 -5 -17 -4 -12 4
4 7 5 12 2 12 -3 0 -7 -4 -11 -9z"/>
<path d="M4037 2777 c4 -6 0 -8 -10 -4 -11 4 -14 2 -10 -9 3 -8 8 -12 11 -10
3 3 11 -2 19 -12 13 -15 13 -15 4 4 -7 14 -7 24 0 31 6 6 5 10 -5 10 -8 0 -12
-5 -9 -10z"/>
<path d="M4114 2769 c-3 -6 -2 -15 3 -20 5 -5 9 -1 9 11 0 23 -2 24 -12 9z"/>
<path d="M4228 2773 c7 -3 16 -2 19 1 4 3 -2 6 -13 5 -11 0 -14 -3 -6 -6z"/>
<path d="M2696 2761 c8 -8 43 -8 38 0 -2 4 -13 7 -24 6 -10 -1 -17 -3 -14 -6z"/>
<path d="M3230 2758 c0 -4 4 -8 9 -8 6 0 12 4 15 8 3 5 -1 9 -9 9 -8 0 -15 -4
-15 -9z"/>
<path d="M3366 2762 c-3 -5 1 -9 9 -9 8 0 15 4 15 9 0 4 -4 8 -9 8 -6 0 -12
-4 -15 -8z"/>
<path d="M3507 2759 c7 -9 10 -19 6 -22 -3 -4 -1 -7 5 -7 17 0 15 16 -5 31
-16 12 -17 12 -6 -2z"/>
<path d="M3620 2760 c-8 -5 -10 -10 -5 -10 6 0 17 5 25 10 8 5 11 10 5 10 -5
0 -17 -5 -25 -10z"/>
<path d="M3816 2761 c8 -8 43 -8 38 0 -2 4 -13 7 -24 6 -10 -1 -17 -3 -14 -6z"/>
<path d="M3985 2759 c-4 -6 -5 -12 -2 -15 2 -3 7 2 10 11 7 17 1 20 -8 4z"/>
<path d="M4156 2755 c-11 -8 -15 -15 -9 -15 7 0 15 5 18 10 4 6 11 8 16 5 5
-4 9 -1 9 4 0 15 -11 13 -34 -4z"/>
<path d="M4306 2758 c3 -5 10 -6 15 -3 13 9 11 12 -6 12 -8 0 -12 -4 -9 -9z"/>
<path d="M3430 2756 c0 -2 7 -9 15 -16 13 -11 14 -10 9 4 -5 14 -24 23 -24 12z"/>
<path d="M4230 2756 c0 -2 7 -9 15 -16 13 -11 14 -10 9 4 -5 14 -24 23 -24 12z"/>
<path d="M4335 2750 c-3 -6 1 -7 9 -4 18 7 21 14 7 14 -6 0 -13 -4 -16 -10z"/>
<path d="M2786 2736 c6 -15 4 -17 -6 -11 -9 6 -11 4 -5 -4 5 -9 10 -10 18 -2
8 8 7 14 -2 24 -10 10 -11 8 -5 -7z"/>
<path d="M2945 2740 c-3 -6 1 -7 9 -4 18 7 21 14 7 14 -6 0 -13 -4 -16 -10z"/>
<path d="M3403 2742 c-7 -4 -9 -13 -4 -21 6 -9 10 -7 14 8 3 12 4 21 4 21 -1
0 -7 -4 -14 -8z"/>
<path d="M4205 2742 c-13 -9 -17 -32 -6 -32 5 0 11 9 14 20 6 22 6 22 -8 12z"/>
<path d="M2897 2724 c2 -7 11 -10 19 -7 19 7 18 10 -5 16 -13 3 -18 1 -14 -9z"/>
<path d="M3102 2727 c10 -8 15 -16 12 -19 -2 -3 2 -8 10 -11 11 -4 13 -1 9 10
-5 12 -3 14 8 8 8 -4 12 -6 9 -2 -3 3 -9 6 -15 7 -5 1 -19 6 -30 12 -18 8 -19
8 -3 -5z"/>
<path d="M3173 2725 c0 -8 7 -11 16 -7 13 5 14 3 4 -9 -10 -12 -8 -15 6 -15
12 0 17 5 13 15 -4 10 -1 12 9 6 8 -4 12 -6 9 -2 -3 3 -9 6 -15 7 -5 1 -17 6
-26 10 -11 6 -16 5 -16 -5z"/>
<path d="M3253 2725 c0 -5 12 -10 27 -10 15 0 27 5 27 10 0 6 -12 10 -27 10
-15 0 -27 -4 -27 -10z"/>
<path d="M4316 2727 c3 -10 9 -15 12 -12 3 3 0 11 -7 18 -10 9 -11 8 -5 -6z"/>
<path d="M2865 2720 c6 -8 10 -17 10 -20 1 -12 24 -44 25 -33 0 6 -5 15 -10
18 -6 4 -8 10 -5 15 3 4 -3 14 -12 21 -15 12 -16 12 -8 -1z"/>
<path d="M3334 2718 c-5 -7 -3 -8 6 -3 10 6 12 4 7 -8 -4 -11 -2 -14 9 -10 11
4 12 9 3 19 -14 17 -16 17 -25 2z"/>
<path d="M3470 2719 c0 -3 9 -9 19 -12 13 -3 18 0 15 7 -5 13 -34 18 -34 5z"/>
<path d="M3896 2718 c3 -5 10 -6 15 -3 13 9 11 12 -6 12 -8 0 -12 -4 -9 -9z"/>
<path d="M3996 2715 c-9 -26 -7 -32 5 -12 6 10 9 21 6 23 -2 3 -7 -2 -11 -11z"/>
<path d="M4070 2720 c0 -5 5 -10 11 -10 5 0 7 5 4 10 -3 6 -8 10 -11 10 -2 0
-4 -4 -4 -10z"/>
<path d="M4282 2721 c-11 -6 -9 -9 6 -13 15 -4 19 -2 15 8 -6 16 -4 16 -21 5z"/>
<path d="M2720 2716 c0 -2 7 -7 16 -10 8 -3 12 -2 9 4 -6 10 -25 14 -25 6z"/>
<path d="M3039 2718 c-8 -27 -5 -36 9 -30 10 4 12 7 4 10 -7 2 -10 8 -6 13 3
5 3 9 0 9 -3 0 -6 -1 -7 -2z"/>
<path d="M3840 2716 c0 -2 7 -7 16 -10 8 -3 12 -2 9 4 -6 10 -25 14 -25 6z"/>
<path d="M2946 2697 c3 -10 9 -15 12 -12 3 3 0 11 -7 18 -10 9 -11 8 -5 -6z"/>
<path d="M3270 2706 c0 -2 7 -7 16 -10 8 -3 12 -2 9 4 -6 10 -25 14 -25 6z"/>
<path d="M3438 2691 c5 -13 3 -14 -9 -4 -12 10 -15 8 -16 -10 0 -12 1 -16 4
-9 3 6 9 10 13 7 5 -3 13 3 19 13 7 14 6 19 -4 19 -8 0 -11 -7 -7 -16z"/>
<path d="M4036 2698 c5 -7 2 -9 -9 -5 -11 4 -14 2 -10 -9 4 -11 9 -12 19 -3
12 10 11 29 -2 29 -3 0 -2 -5 2 -12z"/>
<path d="M4237 2697 c4 -6 0 -8 -10 -4 -11 4 -14 2 -10 -9 5 -13 8 -13 24 2
23 21 23 21 4 21 -8 0 -11 -5 -8 -10z"/>
<path d="M4364 2695 c-4 -8 -10 -13 -14 -10 -5 3 -12 0 -16 -6 -5 -8 -3 -9 6
-4 9 6 12 4 8 -7 -4 -8 -1 -15 7 -15 8 0 11 7 7 15 -3 9 -1 13 4 9 5 -3 10 3
10 14 0 23 -5 24 -12 4z"/>
<path d="M3371 2691 c-8 -5 -9 -11 -3 -15 5 -3 12 1 16 9 6 17 6 18 -13 6z"/>
<path d="M3530 2690 c0 -5 -5 -9 -11 -7 -6 1 -14 -5 -16 -13 -4 -12 -3 -12 5
-2 5 8 13 13 18 12 5 -1 10 3 12 9 2 6 1 11 -2 11 -3 0 -6 -4 -6 -10z"/>
<path d="M3620 2689 c0 -5 -4 -8 -9 -4 -6 3 -14 -3 -20 -13 -7 -14 -6 -19 4
-19 8 0 11 7 7 16 -5 13 -3 14 9 4 12 -10 15 -8 16 8 1 10 0 19 -3 19 -2 0 -4
-5 -4 -11z"/>
<path d="M3717 2693 c-10 -9 -9 -23 1 -23 5 0 9 7 9 15 0 17 -1 18 -10 8z"/>
<path d="M4164 2685 c-10 -8 -14 -15 -9 -15 6 0 3 -5 -5 -11 -10 -7 -11 -9 -2
-7 8 2 13 7 12 12 -1 4 7 14 17 22 10 7 15 14 12 14 -3 0 -14 -7 -25 -15z"/>
<path d="M4309 2683 c-13 -16 -12 -17 4 -4 9 7 17 15 17 17 0 8 -8 3 -21 -13z"/>
<path d="M2639 2673 c-12 -16 -12 -17 2 -6 9 7 19 10 22 6 4 -3 7 -1 7 5 0 17
-16 15 -31 -5z"/>
<path d="M2750 2680 c0 -5 5 -10 10 -10 6 0 10 5 10 10 0 6 -4 10 -10 10 -5 0
-10 -4 -10 -10z"/>
<path d="M2827 2671 c-4 -17 -3 -21 5 -13 5 5 8 16 6 23 -3 8 -7 3 -11 -10z"/>
<path d="M3145 2680 c-3 -6 1 -7 9 -4 18 7 21 14 7 14 -6 0 -13 -4 -16 -10z"/>
<path d="M3240 2680 c18 -12 30 -13 30 -2 0 4 -10 9 -22 9 -18 2 -20 0 -8 -7z"/>
<path d="M3313 2675 c0 -8 4 -12 9 -9 4 3 8 9 8 15 0 5 -4 9 -8 9 -5 0 -9 -7
-9 -15z"/>
<path d="M3657 2676 c-4 -10 -1 -13 8 -9 8 3 12 9 9 14 -7 12 -11 11 -17 -5z"/>
<path d="M3770 2682 c0 -4 10 -9 22 -9 18 -2 20 0 8 7 -18 12 -30 13 -30 2z"/>
<path d="M3874 2675 c1 -8 6 -18 11 -22 4 -5 5 -2 0 6 -6 11 -4 13 10 7 15 -5
16 -4 5 9 -16 19 -29 19 -26 0z"/>
<path d="M4256 2673 c-6 -14 -5 -15 5 -6 7 7 10 15 7 18 -3 3 -9 -2 -12 -12z"/>
<path d="M4073 2665 c0 -8 4 -15 9 -15 4 0 8 4 8 9 0 6 -4 12 -8 15 -5 3 -9
-1 -9 -9z"/>
<path d="M4277 2667 c-3 -8 1 -14 8 -14 7 0 11 6 8 14 -3 7 -6 13 -8 13 -2 0
-5 -6 -8 -13z"/>
<path d="M2685 2662 c-13 -9 -17 -32 -6 -32 5 0 11 9 14 20 6 22 6 22 -8 12z"/>
<path d="M3163 2662 c-7 -4 -9 -13 -4 -21 6 -9 10 -7 14 8 3 12 4 21 4 21 -1
0 -7 -4 -14 -8z"/>
<path d="M3682 2661 c-10 -6 -10 -10 2 -20 11 -9 16 -9 22 0 5 8 3 9 -6 4 -10
-6 -12 -4 -7 8 7 19 7 20 -11 8z"/>
<path d="M3826 2655 c6 -14 4 -16 -7 -10 -8 5 -11 4 -6 0 10 -12 37 -15 37 -5
0 4 -7 13 -15 20 -13 11 -14 10 -9 -5z"/>
<path d="M2726 2641 c-15 -16 -15 -19 -2 -24 11 -4 13 -1 9 10 -4 10 -2 14 4
10 5 -3 10 0 10 8 0 19 0 19 -21 -4z"/>
<path d="M3536 2646 c3 -7 11 -13 19 -13 22 0 18 14 -4 20 -13 3 -18 0 -15 -7z"/>
<path d="M4220 2652 c0 -6 -8 -9 -17 -6 -15 5 -16 4 -3 -5 16 -11 40 3 27 16
-4 3 -7 1 -7 -5z"/>
<path d="M2599 2640 c-3 -20 -4 -25 -13 -40 -7 -12 -6 -13 4 -3 13 12 25 53
15 53 -3 0 -6 -4 -6 -10z"/>
<path d="M2773 2637 c-4 -6 -1 -7 7 -2 10 6 12 4 6 -10 -5 -15 -4 -16 9 -5 8
7 15 16 15 20 0 10 -30 8 -37 -3z"/>
<path d="M2865 2639 c-3 -4 2 -6 10 -5 21 3 28 13 10 13 -9 0 -18 -4 -20 -8z"/>
<path d="M2950 2639 c0 -5 5 -7 10 -4 6 3 10 8 10 11 0 2 -4 4 -10 4 -5 0 -10
-5 -10 -11z"/>
<path d="M3627 2631 c-3 -13 -1 -18 9 -14 7 2 10 11 7 19 -7 19 -10 18 -16 -5z"/>
<path d="M3733 2635 c0 -5 12 -10 27 -10 15 0 27 5 27 10 0 6 -12 10 -27 10
-15 0 -27 -4 -27 -10z"/>
<path d="M3910 2645 c0 -5 5 -17 10 -25 5 -8 10 -10 10 -5 0 6 -5 17 -10 25
-5 8 -10 11 -10 5z"/>
<path d="M4042 2641 c-11 -6 -9 -9 6 -13 15 -4 19 -2 15 8 -6 16 -4 16 -21 5z"/>
<path d="M4236 2633 c-6 -14 -5 -15 5 -6 7 7 10 15 7 18 -3 3 -9 -2 -12 -12z"/>
<path d="M4310 2640 c0 -5 5 -10 10 -10 6 0 10 5 10 10 0 6 -4 10 -10 10 -5 0
-10 -4 -10 -10z"/>
<path d="M2839 2628 c-5 -18 -6 -38 -1 -34 7 8 12 36 6 36 -2 0 -4 -1 -5 -2z"/>
<path d="M2924 2615 c-4 -8 -10 -13 -14 -10 -4 3 -10 -2 -13 -10 -4 -10 -1
-12 10 -8 12 5 14 3 8 -8 -4 -8 -5 -11 -1 -7 4 3 8 10 8 15 0 4 4 16 9 26 5 9
7 17 4 17 -3 0 -8 -7 -11 -15z"/>
<path d="M3510 2621 c0 -5 8 -15 18 -22 15 -12 16 -12 5 2 -7 9 -10 19 -6 22
3 4 1 7 -5 7 -7 0 -12 -4 -12 -9z"/>
<path d="M3586 2615 c4 -8 11 -15 16 -15 6 0 5 6 -2 15 -7 8 -14 15 -16 15 -2
0 -1 -7 2 -15z"/>
<path d="M3870 2615 c5 -7 7 -15 3 -18 -3 -4 -2 -7 4 -7 6 0 16 7 23 15 11 13
10 14 -5 9 -11 -5 -16 -4 -12 3 3 5 0 10 -8 10 -10 0 -12 -4 -5 -12z"/>
<path d="M3990 2623 c5 -2 8 -9 5 -13 -3 -5 5 -14 17 -20 22 -11 22 -11 3 5
-11 9 -19 19 -17 23 2 3 -1 7 -8 9 -6 1 -7 0 0 -4z"/>
<path d="M4275 2620 c6 -10 4 -12 -11 -6 -15 6 -17 5 -6 -5 9 -9 15 -10 23 -2
8 8 7 13 -2 18 -8 6 -10 4 -4 -5z"/>
<path d="M4355 2621 c-9 -15 15 -25 28 -12 9 9 7 10 -7 5 -13 -5 -17 -4 -12 4
4 7 5 12 2 12 -3 0 -7 -4 -11 -9z"/>
<path d="M2650 2611 c-8 -6 -19 -7 -25 -4 -5 3 -4 0 3 -8 10 -11 15 -10 29 4
19 19 16 22 -7 8z"/>
<path d="M2693 2605 c0 -7 6 -11 14 -8 7 3 13 6 13 8 0 2 -6 5 -13 8 -8 3 -14
-1 -14 -8z"/>
<path d="M3020 2616 c0 -2 7 -7 16 -10 8 -3 12 -2 9 4 -6 10 -25 14 -25 6z"/>
<path d="M2750 2606 c0 -2 7 -7 16 -10 8 -3 12 -2 9 4 -6 10 -25 14 -25 6z"/>
<path d="M2970 2602 c0 -4 10 -9 22 -9 18 -2 20 0 8 7 -18 12 -30 13 -30 2z"/>
<path d="M3174 2598 c-5 -7 -2 -8 6 -3 9 6 12 4 8 -6 -4 -10 1 -15 16 -16 11
0 15 1 8 4 -6 3 -10 8 -7 13 3 4 -2 10 -10 14 -8 3 -17 0 -21 -6z"/>
<path d="M3400 2600 c-9 -6 -10 -10 -3 -10 6 0 15 5 18 10 8 12 4 12 -15 0z"/>
<path d="M3474 2596 c1 -8 5 -18 8 -22 4 -3 5 1 4 10 -1 8 -5 18 -8 22 -4 3
-5 -1 -4 -10z"/>
<path d="M3650 2598 c0 -4 4 -8 9 -8 6 0 12 4 15 8 3 5 -1 9 -9 9 -8 0 -15 -4
-15 -9z"/>
<path d="M3707 2588 c-5 -21 -5 -21 7 -6 7 10 17 14 21 10 5 -4 5 -1 1 6 -11
19 -23 14 -29 -10z"/>
<path d="M3784 2598 c-4 -7 -4 -10 1 -6 4 4 14 0 21 -10 12 -15 12 -15 7 6 -6
24 -18 29 -29 10z"/>
<path d="M4060 2595 c-11 -13 -10 -14 4 -9 9 3 16 10 16 15 0 13 -6 11 -20 -6z"/>
<path d="M3295 2590 c-4 -6 1 -7 11 -3 13 5 15 3 9 -7 -5 -9 -4 -11 4 -6 6 4
9 12 6 17 -8 12 -22 12 -30 -1z"/>
<path d="M2705 2580 c-3 -6 1 -7 9 -4 18 7 21 14 7 14 -6 0 -13 -4 -16 -10z"/>
<path d="M2870 2585 c0 -5 5 -17 10 -25 5 -8 10 -10 10 -5 0 6 -5 17 -10 25
-5 8 -10 11 -10 5z"/>
<path d="M3026 2576 c6 -15 4 -17 -6 -11 -9 6 -11 4 -5 -4 5 -9 10 -10 18 -2
8 8 7 14 -2 24 -10 10 -11 8 -5 -7z"/>
<path d="M3362 2578 c-7 -7 -12 -16 -12 -22 0 -5 3 -6 7 -3 3 4 11 2 18 -3 8
-7 12 -5 12 5 0 8 -5 11 -10 8 -6 -4 -8 0 -4 10 8 20 5 21 -11 5z"/>
<path d="M3426 2575 c6 -14 4 -16 -7 -10 -8 5 -11 4 -6 0 10 -12 37 -15 37 -5
0 4 -7 13 -15 20 -13 11 -14 10 -9 -5z"/>
<path d="M3835 2581 c-9 -15 15 -25 28 -12 9 9 7 10 -7 5 -13 -5 -17 -4 -12 4
4 7 5 12 2 12 -3 0 -7 -4 -11 -9z"/>
<path d="M2657 2564 c2 -7 11 -10 19 -7 19 7 18 10 -5 16 -13 3 -18 1 -14 -9z"/>
<path d="M2957 2573 c-12 -12 -7 -21 16 -26 20 -5 20 -5 5 7 -10 7 -15 16 -11
19 3 4 4 7 1 7 -2 0 -8 -3 -11 -7z"/>
<path d="M3134 2561 c0 -12 6 -17 18 -13 10 2 18 9 18 15 0 6 -3 7 -7 4 -3 -4
-11 -3 -17 3 -8 6 -12 3 -12 -9z"/>
<path d="M3276 2567 c3 -10 9 -15 12 -12 3 3 0 11 -7 18 -10 9 -11 8 -5 -6z"/>
<path d="M3531 2573 c-1 -18 13 -23 29 -11 12 8 12 9 -2 5 -9 -3 -19 -1 -22 6
-3 9 -5 9 -5 0z"/>
<path d="M4298 2568 c5 -5 16 -8 23 -6 8 3 3 7 -10 11 -17 4 -21 3 -13 -5z"/>
<path d="M2602 2561 c-11 -6 -9 -9 6 -13 15 -4 19 -2 15 8 -6 16 -4 16 -21 5z"/>
<path d="M3242 2561 c-11 -6 -9 -9 6 -13 15 -4 19 -2 15 8 -6 16 -4 16 -21 5z"/>
<path d="M3506 2560 c5 -8 9 -18 9 -22 0 -3 3 -9 7 -13 3 -4 5 0 4 9 -1 9 -8
22 -16 29 -10 10 -11 9 -4 -3z"/>
<path d="M3746 2562 c-2 -4 4 -8 14 -8 10 0 16 4 14 8 -3 4 -9 8 -14 8 -5 0
-11 -4 -14 -8z"/>
<path d="M3893 2557 c-4 -6 -1 -7 7 -2 10 6 12 4 7 -8 -9 -23 0 -22 12 1 8 14
6 19 -5 19 -8 0 -18 -5 -21 -10z"/>
<path d="M4028 2552 c-4 -12 1 -18 13 -18 12 0 15 4 9 12 -6 6 -7 14 -3 17 3
4 2 7 -4 7 -6 0 -13 -8 -15 -18z"/>
<path d="M4107 2551 c-3 -13 -1 -18 9 -14 7 2 10 11 7 19 -7 19 -10 18 -16 -5z"/>
<path d="M2707 2530 c3 -11 9 -22 13 -25 5 -3 6 4 3 15 -3 11 -9 22 -13 25 -5
3 -6 -4 -3 -15z"/>
<path d="M2917 2537 c4 -6 0 -8 -9 -5 -8 4 -15 1 -15 -6 0 -18 23 -15 35 4 7
12 7 17 -4 17 -7 0 -10 -5 -7 -10z"/>
<path d="M3187 2533 c5 -12 3 -14 -8 -8 -8 5 -11 4 -6 0 4 -5 13 -10 21 -11
16 -2 17 24 0 30 -9 3 -11 -1 -7 -11z"/>
<path d="M3325 2540 c-3 -5 -1 -18 4 -27 6 -11 11 -13 11 -5 0 7 5 10 12 6 7
-4 8 -3 4 5 -4 6 -12 8 -18 5 -7 -5 -9 -1 -5 9 7 19 2 23 -8 7z"/>
<path d="M3468 2536 c5 -11 17 -21 26 -22 9 -1 13 2 10 8 -3 5 -8 7 -12 4 -3
-3 -11 2 -19 12 -13 16 -14 16 -5 -2z"/>
<path d="M2763 2518 c-9 -19 -8 -25 2 -25 8 0 11 7 7 15 -3 10 -1 13 6 8 6 -3
14 -1 18 5 4 7 3 9 -4 5 -5 -3 -12 -1 -14 5 -2 6 -9 0 -15 -13z"/>
<path d="M3112 2535 c4 -4 0 -14 -10 -22 -16 -12 -16 -13 2 -6 15 5 17 3 11
-8 -5 -8 -4 -11 0 -6 14 12 14 36 2 44 -7 3 -9 3 -5 -2z"/>
<path d="M3273 2523 c-3 -10 -8 -22 -11 -27 -3 -5 0 -6 5 -3 11 7 25 47 17 47
-3 0 -7 -8 -11 -17z"/>
<path d="M3740 2529 c0 -5 -6 -7 -12 -3 -7 4 -9 3 -5 -1 13 -15 36 -14 30 1
-6 17 -13 18 -13 3z"/>
<path d="M3988 2532 c8 -5 13 -13 12 -18 -1 -5 4 -10 12 -12 11 -3 11 -2 0 6
-8 5 -13 13 -12 18 1 5 -4 10 -12 12 -11 3 -11 2 0 -6z"/>
<path d="M4155 2530 c-4 -6 -10 -8 -14 -6 -4 3 -13 0 -21 -5 -11 -7 -10 -8 8
-6 20 3 56 27 40 27 -4 0 -10 -5 -13 -10z"/>
<path d="M4274 2526 c1 -8 5 -18 8 -22 4 -3 5 1 4 10 -1 8 -5 18 -8 22 -4 3
-5 -1 -4 -10z"/>
<path d="M4390 2533 c5 -2 8 -9 4 -14 -3 -5 0 -9 6 -9 15 0 7 23 -8 26 -7 1
-8 0 -2 -3z"/>
<path d="M2620 2515 c-11 -13 -10 -14 5 -9 14 6 16 4 10 -7 -5 -8 -4 -11 0 -6
12 10 15 37 5 37 -4 0 -13 -7 -20 -15z"/>
<path d="M2835 2520 c-3 -5 -1 -10 4 -10 6 0 11 5 11 10 0 6 -2 10 -4 10 -3 0
-8 -4 -11 -10z"/>
<path d="M2990 2526 c0 -2 7 -7 16 -10 8 -3 12 -2 9 4 -6 10 -25 14 -25 6z"/>
<path d="M3560 2520 c-9 -6 -10 -10 -3 -10 6 0 15 5 18 10 8 12 4 12 -15 0z"/>
<path d="M3641 2516 c-9 -11 -9 -16 0 -22 8 -5 9 -3 4 6 -6 10 -4 12 8 7 11
-4 14 -2 10 9 -6 17 -8 17 -22 0z"/>
<path d="M3837 2511 c-10 -12 -9 -13 3 -6 8 5 21 10 28 11 24 4 25 13 3 11
-12 -1 -28 -8 -34 -16z"/>
<path d="M3920 2520 c-9 -6 -10 -10 -3 -10 6 0 15 5 18 10 8 12 4 12 -15 0z"/>
<path d="M4065 2520 c-3 -6 1 -7 9 -4 18 7 21 14 7 14 -6 0 -13 -4 -16 -10z"/>
<path d="M4200 2520 c-8 -5 -10 -10 -5 -10 6 0 17 5 25 10 8 5 11 10 5 10 -5
0 -17 -5 -25 -10z"/>
<path d="M4316 2515 c-11 -8 -15 -15 -9 -15 6 0 16 7 23 15 16 19 11 19 -14 0z"/>
<path d="M3027 2507 c-3 -8 1 -14 8 -14 7 0 11 6 8 14 -3 7 -6 13 -8 13 -2 0
-5 -6 -8 -13z"/>
<path d="M3883 2502 c-7 -4 -9 -13 -4 -21 6 -9 10 -7 14 8 3 12 4 21 4 21 -1
0 -7 -4 -14 -8z"/>
<path d="M3948 2488 c2 -10 9 -18 15 -18 6 0 7 3 4 7 -4 3 -3 11 3 17 6 8 3
12 -9 12 -12 0 -17 -6 -13 -18z"/>
<path d="M4085 2502 c-5 -4 -11 -12 -12 -19 -3 -13 22 -12 34 2 5 4 2 5 -6 0
-11 -6 -13 -4 -8 8 7 19 6 20 -8 9z"/>
<path d="M4227 2493 c5 -12 3 -14 -8 -8 -8 5 -11 4 -6 0 4 -5 14 -10 22 -11
12 -2 12 2 5 17 -13 23 -22 25 -13 2z"/>
<path d="M4350 2494 c6 -6 7 -14 3 -17 -3 -4 -2 -7 4 -7 6 0 13 8 15 18 4 12
-1 18 -13 18 -12 0 -15 -4 -9 -12z"/>
<path d="M4427 2489 c6 -23 9 -24 16 -5 3 8 0 17 -7 19 -10 4 -12 -1 -9 -14z"/>
<path d="M2686 2491 c-17 -6 -17 -8 -4 -14 10 -3 19 0 22 9 3 8 4 14 3 13 -1
0 -11 -4 -21 -8z"/>
<path d="M2808 2493 c-21 -5 -23 -19 -6 -29 7 -5 8 -3 3 6 -6 9 -4 12 7 8 9
-4 15 0 15 8 0 8 -1 13 -1 13 -1 -1 -9 -3 -18 -6z"/>
<path d="M2976 2486 c3 -7 11 -13 19 -13 22 0 18 14 -4 20 -13 3 -18 0 -15 -7z"/>
<path d="M3214 2481 c0 -12 6 -17 18 -13 10 2 18 9 18 15 0 6 -3 7 -7 4 -3 -4
-11 -3 -17 3 -8 6 -12 3 -12 -9z"/>
<path d="M3582 2486 c10 -7 14 -17 10 -21 -4 -5 -1 -5 6 -1 19 11 14 23 -10
29 -21 5 -21 5 -6 -7z"/>
<path d="M3675 2489 c-4 -6 -5 -12 -2 -15 2 -3 7 2 10 11 7 17 1 20 -8 4z"/>
<path d="M2593 2483 c4 -3 3 -11 -3 -17 -6 -8 -3 -12 9 -12 12 0 17 6 13 18
-2 10 -9 18 -15 18 -6 0 -7 -3 -4 -7z"/>
<path d="M2716 2473 c-6 -14 -5 -15 5 -6 7 7 10 15 7 18 -3 3 -9 -2 -12 -12z"/>
<path d="M2855 2479 c-6 -8 -4 -10 5 -4 10 6 12 4 6 -11 -6 -15 -5 -17 5 -6 9
9 10 15 2 23 -8 8 -13 7 -18 -2z"/>
<path d="M3067 2471 c-3 -13 -1 -18 9 -14 7 2 10 11 7 19 -7 19 -10 18 -16 -5z"/>
<path d="M3307 2471 c-3 -13 -1 -18 9 -14 7 2 10 11 7 19 -7 19 -10 18 -16 -5z"/>
<path d="M3526 2482 c-3 -5 1 -9 9 -9 8 0 12 4 9 9 -3 4 -7 8 -9 8 -2 0 -6 -4
-9 -8z"/>
<path d="M3694 2479 c-3 -6 -3 -13 0 -16 3 -4 6 -1 6 5 0 6 7 9 15 6 8 -4 15
-4 15 -1 0 11 -30 16 -36 6z"/>
<path d="M4133 2476 c0 -6 13 -11 28 -11 32 0 29 11 -4 17 -13 3 -24 0 -24 -6z"/>
<path d="M2755 2460 c6 -10 4 -12 -8 -7 -11 4 -14 2 -10 -9 3 -8 8 -12 11 -10
3 3 11 -2 19 -12 13 -15 13 -15 4 4 -6 12 -8 24 -5 27 3 3 0 8 -7 13 -8 5 -10
3 -4 -6z"/>
<path d="M3027 2453 c5 -12 3 -14 -8 -8 -8 4 -11 4 -6 0 4 -5 16 -9 27 -10 19
-2 19 -1 3 17 -20 22 -24 23 -16 1z"/>
<path d="M3190 2465 c0 -5 5 -17 10 -25 5 -8 10 -10 10 -5 0 6 -5 17 -10 25
-5 8 -10 11 -10 5z"/>
<path d="M3267 2455 c3 -8 9 -12 14 -9 12 7 11 11 -5 17 -10 4 -13 1 -9 -8z"/>
<path d="M3635 2460 c-3 -5 -4 -10 0 -10 3 0 1 -10 -5 -22 -10 -21 -10 -21 3
-6 8 10 16 15 19 12 3 -2 8 2 11 10 4 11 1 13 -10 9 -11 -4 -14 -2 -9 5 4 7 5
12 2 12 -3 0 -8 -4 -11 -10z"/>
<path d="M3559 2448 c15 -21 31 -23 31 -6 0 6 -3 8 -7 5 -3 -4 -13 -1 -22 6
-14 11 -14 10 -2 -5z"/>
<path d="M3931 2451 c-8 -5 -9 -11 -3 -15 5 -3 12 1 16 9 6 17 6 18 -13 6z"/>
<path d="M3985 2445 c11 -9 19 -19 18 -23 -1 -4 0 -9 2 -10 2 -2 2 4 1 13 -1
10 -11 22 -22 27 -18 9 -17 8 1 -7z"/>
<path d="M4331 2451 c-8 -5 -16 -17 -17 -26 -1 -9 1 -14 4 -10 4 4 6 9 4 12
-2 3 5 11 15 19 20 15 16 19 -6 5z"/>
<path d="M4370 2456 c0 -2 7 -9 15 -16 9 -7 15 -8 15 -2 0 5 -7 12 -15 16 -8
3 -15 4 -15 2z"/>
<path d="M2550 2446 c0 -2 7 -7 16 -10 8 -3 12 -2 9 4 -6 10 -25 14 -25 6z"/>
<path d="M2810 2438 c0 -11 12 -10 30 2 12 7 10 9 -8 7 -12 0 -22 -5 -22 -9z"/>
<path d="M3330 2438 c0 -11 12 -10 30 2 12 7 10 9 -8 7 -12 0 -22 -5 -22 -9z"/>
<path d="M3680 2435 c-7 -8 -9 -15 -5 -15 4 0 1 -8 -6 -17 -13 -16 -12 -17 4
-4 9 8 15 16 12 19 -3 3 0 11 6 19 6 7 9 13 6 13 -2 0 -10 -7 -17 -15z"/>
<path d="M3810 2438 c0 -6 3 -8 7 -5 3 4 11 2 18 -3 8 -7 12 -6 12 3 0 7 -9
14 -19 14 -10 1 -18 -3 -18 -9z"/>
<path d="M4099 2433 c-13 -17 -13 -17 5 -3 18 13 19 13 14 -1 -4 -9 -1 -16 7
-16 7 0 10 8 7 19 -6 23 -16 23 -33 1z"/>
<path d="M4193 2443 c4 -3 2 -11 -3 -18 -7 -8 -5 -12 5 -12 8 0 11 5 8 10 -4
7 1 8 12 3 15 -5 16 -4 5 9 -7 8 -17 15 -23 15 -6 0 -7 -3 -4 -7z"/>
<path d="M4475 2440 c3 -5 8 -10 11 -10 2 0 4 5 4 10 0 6 -5 10 -11 10 -5 0
-7 -4 -4 -10z"/>
<path d="M3514 2426 c1 -8 5 -18 8 -22 4 -3 5 1 4 10 -1 8 -5 18 -8 22 -4 3
-5 -1 -4 -10z"/>
<path d="M3746 2424 c-5 -14 -4 -15 9 -4 17 14 19 20 6 20 -5 0 -12 -7 -15
-16z"/>
<path d="M2628 2423 c7 -3 16 -2 19 1 4 3 -2 6 -13 5 -11 0 -14 -3 -6 -6z"/>
<path d="M3787 2409 c6 -23 9 -24 16 -5 3 8 0 17 -7 19 -10 4 -12 -1 -9 -14z"/>
<path d="M4070 2425 c0 -5 5 -17 10 -25 5 -8 10 -10 10 -5 0 6 -5 17 -10 25
-5 8 -10 11 -10 5z"/>
<path d="M4236 2415 c-9 -26 -7 -32 5 -12 6 10 9 21 6 23 -2 3 -7 -2 -11 -11z"/>
<path d="M3217 2404 c2 -7 11 -10 19 -7 19 7 18 10 -5 16 -13 3 -18 1 -14 -9z"/>
<path d="M3422 2407 c10 -8 15 -17 11 -20 -3 -4 -1 -7 5 -7 7 0 12 5 12 11 0
5 6 7 13 3 6 -4 10 -5 7 -1 -3 3 -9 6 -15 7 -5 1 -19 6 -30 12 -18 8 -19 8 -3
-5z"/>
<path d="M3937 2404 c2 -7 11 -10 19 -7 19 7 18 10 -5 16 -13 3 -18 1 -14 -9z"/>
<path d="M4366 2411 c-17 -6 -17 -8 -4 -14 10 -3 19 0 22 9 3 8 4 14 3 13 -1
0 -11 -4 -21 -8z"/>
<path d="M2530 2402 c0 -4 10 -9 22 -9 18 -2 20 0 8 7 -18 12 -30 13 -30 2z"/>
<path d="M2997 2395 c-6 -15 10 -32 20 -21 4 3 1 6 -5 6 -6 0 -9 7 -6 15 4 8
4 15 1 15 -3 0 -7 -7 -10 -15z"/>
<path d="M3096 2398 c3 -5 10 -6 15 -3 13 9 11 12 -6 12 -8 0 -12 -4 -9 -9z"/>
<path d="M3595 2400 c-3 -5 -1 -10 4 -10 6 0 11 5 11 10 0 6 -2 10 -4 10 -3 0
-8 -4 -11 -10z"/>
<path d="M3696 2394 c-3 -7 2 -10 15 -7 22 6 26 20 4 20 -8 0 -16 -6 -19 -13z"/>
<path d="M4150 2400 c0 -5 5 -10 10 -10 6 0 10 5 10 10 0 6 -4 10 -10 10 -5 0
-10 -4 -10 -10z"/>
<path d="M3040 2396 c0 -2 7 -7 16 -10 8 -3 12 -2 9 4 -6 10 -25 14 -25 6z"/>
<path d="M3190 2381 c0 -6 4 -12 8 -15 5 -3 9 1 9 9 0 8 -4 15 -9 15 -4 0 -8
-4 -8 -9z"/>
<path d="M3635 2381 c-9 -15 15 -25 28 -12 9 9 7 10 -7 5 -13 -5 -17 -4 -12 4
4 7 5 12 2 12 -3 0 -7 -4 -11 -9z"/>
<path d="M3748 2372 c4 -11 1 -13 -8 -7 -9 5 -11 4 -6 -3 10 -16 14 -15 25 6
7 14 6 19 -4 19 -7 0 -11 -7 -7 -15z"/>
<path d="M3838 2383 c7 -3 16 -2 19 1 4 3 -2 6 -13 5 -11 0 -14 -3 -6 -6z"/>
<path d="M3910 2381 c0 -6 4 -12 8 -15 5 -3 9 1 9 9 0 8 -4 15 -9 15 -4 0 -8
-4 -8 -9z"/>
<path d="M4115 2380 c6 -10 4 -12 -8 -7 -21 8 -22 3 -3 -12 10 -9 15 -8 19 3
4 9 1 18 -5 22 -7 5 -8 2 -3 -6z"/>
<path d="M4199 2388 c-11 -38 -1 -49 21 -23 11 13 10 14 -5 9 -13 -5 -16 -4
-11 4 4 7 5 12 2 12 -3 0 -6 -1 -7 -2z"/>
<path d="M4393 2375 c0 -8 4 -12 9 -9 4 3 8 9 8 15 0 5 -4 9 -8 9 -5 0 -9 -7
-9 -15z"/>
<path d="M2728 2368 c-7 -17 15 -19 29 -3 4 4 3 5 -4 2 -6 -4 -13 -2 -15 5 -3
8 -6 6 -10 -4z"/>
<path d="M3355 2370 c-3 -6 1 -7 9 -4 18 7 21 14 7 14 -6 0 -13 -4 -16 -10z"/>
<path d="M3818 2368 c5 -5 16 -8 23 -6 8 3 3 7 -10 11 -17 4 -21 3 -13 -5z"/>
<path d="M4490 2370 c-9 -6 -10 -10 -3 -10 6 0 15 5 18 10 8 12 4 12 -15 0z"/>
<path d="M2646 2357 c3 -10 9 -15 12 -12 3 3 0 11 -7 18 -10 9 -11 8 -5 -6z"/>
<path d="M3070 2360 c0 -5 5 -10 10 -10 6 0 10 5 10 10 0 6 -4 10 -10 10 -5 0
-10 -4 -10 -10z"/>
<path d="M3147 2351 c-4 -17 -3 -21 5 -13 5 5 8 16 6 23 -3 8 -7 3 -11 -10z"/>
<path d="M3679 2363 c-1 -5 -1 -12 0 -17 1 -5 -5 -6 -14 -2 -10 3 -14 2 -10
-5 9 -14 28 -6 31 14 1 9 0 17 -2 17 -2 0 -5 -3 -5 -7z"/>
<path d="M3961 2356 c-9 -11 -9 -16 0 -22 8 -5 9 -3 4 6 -6 10 -4 12 8 7 11
-4 14 -2 10 9 -6 17 -8 17 -22 0z"/>
<path d="M4337 2356 c-4 -11 -1 -13 10 -9 12 5 14 3 8 -7 -5 -9 -4 -11 4 -6 9
6 9 11 0 22 -14 17 -16 17 -22 0z"/>
<path d="M2595 2351 c-3 -5 0 -13 6 -17 8 -5 9 -3 4 6 -6 10 -4 12 9 7 10 -4
15 -3 11 3 -8 13 -22 13 -30 1z"/>
<path d="M2797 2353 c-10 -9 -9 -23 1 -23 5 0 9 7 9 15 0 17 -1 18 -10 8z"/>
<path d="M2875 2351 c3 -5 0 -11 -7 -13 -7 -3 -5 -7 6 -11 9 -4 15 -3 11 2 -3
5 0 11 7 13 7 3 5 7 -6 11 -9 4 -15 3 -11 -2z"/>
<path d="M3193 2343 c4 -3 1 -13 -6 -22 -11 -14 -10 -14 6 -2 20 15 22 31 5
31 -6 0 -8 -3 -5 -7z"/>
<path d="M3310 2340 c0 -5 5 -10 10 -10 6 0 10 5 10 10 0 6 -4 10 -10 10 -5 0
-10 -4 -10 -10z"/>
<path d="M4310 2345 c0 -5 5 -17 10 -25 5 -8 10 -10 10 -5 0 6 -5 17 -10 25
-5 8 -10 11 -10 5z"/>
<path d="M3093 2325 c0 -8 5 -11 10 -8 7 4 8 -1 3 -12 -5 -15 -4 -16 9 -5 8 7
15 17 15 23 0 6 -3 7 -7 4 -3 -4 -11 -2 -18 3 -8 7 -12 5 -12 -5z"/>
<path d="M4137 2328 c2 -5 13 -8 23 -8 10 0 21 3 23 8 3 4 -8 7 -23 7 -15 0
-26 -3 -23 -7z"/>
<path d="M4408 2333 c-21 -5 -23 -19 -5 -29 6 -4 9 -4 5 1 -4 4 0 14 10 21 18
14 17 14 -10 7z"/>
<path d="M2555 2320 c3 -5 8 -10 11 -10 2 0 4 5 4 10 0 6 -5 10 -11 10 -5 0
-7 -4 -4 -10z"/>
<path d="M2627 2319 c7 -9 10 -19 6 -22 -3 -4 -1 -7 5 -7 17 0 15 16 -5 31
-16 12 -17 12 -6 -2z"/>
<path d="M2814 2319 c-3 -6 -3 -13 0 -16 3 -4 6 -1 6 5 0 6 7 9 15 6 8 -4 15
-4 15 -1 0 11 -30 16 -36 6z"/>
<path d="M3033 2320 c-13 -5 -23 -12 -23 -14 0 -3 7 -2 17 1 10 4 14 2 10 -4
-3 -5 0 -10 7 -10 8 0 12 7 8 15 -4 11 -1 13 8 7 9 -5 11 -4 6 3 -4 7 -8 12
-9 11 -1 0 -12 -4 -24 -9z"/>
<path d="M3710 2319 c0 -5 5 -7 10 -4 6 3 10 8 10 11 0 2 -4 4 -10 4 -5 0 -10
-5 -10 -11z"/>
<path d="M3915 2320 c3 -5 8 -10 11 -10 2 0 4 5 4 10 0 6 -5 10 -11 10 -5 0
-7 -4 -4 -10z"/>
<path d="M3830 2310 c-11 -7 -11 -10 -2 -10 7 0 10 -4 7 -10 -4 -6 1 -7 11 -3
11 4 13 8 6 11 -7 2 -10 8 -6 13 7 11 3 11 -16 -1z"/>
<path d="M2587 2293 c6 -25 18 -30 29 -10 4 6 4 9 -1 5 -4 -4 -14 0 -21 10
-12 15 -12 15 -7 -5z"/>
<path d="M3159 2308 c-9 -30 -6 -37 12 -28 23 13 25 22 2 13 -11 -4 -14 -3 -9
5 4 7 5 12 2 12 -3 0 -6 -1 -7 -2z"/>
<path d="M3750 2300 c0 -5 5 -10 10 -10 6 0 10 5 10 10 0 6 -4 10 -10 10 -5 0
-10 -4 -10 -10z"/>
<path d="M3948 2295 c6 -11 11 -24 12 -30 1 -5 4 -12 7 -15 4 -3 2 1 -2 9 -6
11 -4 13 8 8 11 -4 14 -2 10 9 -3 8 -8 12 -11 10 -3 -3 -11 2 -19 12 -13 16
-13 15 -5 -3z"/>
<path d="M4355 2280 c0 -15 5 -27 10 -27 6 0 10 12 10 27 0 15 -4 27 -10 27
-5 0 -10 -12 -10 -27z"/>
<path d="M4300 2293 c0 -6 5 -15 10 -18 6 -4 8 -10 6 -14 -3 -4 0 -13 5 -21 7
-12 8 -11 6 5 -3 24 -26 65 -27 48z"/>
<path d="M4434 2289 c-3 -6 -2 -15 3 -20 5 -5 9 -1 9 11 0 23 -2 24 -12 9z"/>
<path d="M4513 2283 c0 -7 4 -13 7 -13 4 0 12 6 18 13 8 10 6 13 -7 13 -10 0
-18 -6 -18 -13z"/>
<path d="M2530 2278 c0 -6 3 -8 7 -5 3 4 13 1 22 -6 14 -11 14 -10 2 6 -15 20
-31 22 -31 5z"/>
<path d="M2675 2280 c-3 -5 -1 -10 4 -10 6 0 11 5 11 10 0 6 -2 10 -4 10 -3 0
-8 -4 -11 -10z"/>
<path d="M2776 2273 c-6 -14 -5 -15 5 -6 7 7 10 15 7 18 -3 3 -9 -2 -12 -12z"/>
<path d="M2806 2281 c-3 -5 1 -11 9 -14 9 -4 12 -1 8 9 -6 16 -10 17 -17 5z"/>
<path d="M2980 2275 c-11 -13 -10 -14 5 -9 14 6 16 4 10 -7 -5 -8 -4 -11 0 -6
12 10 15 37 5 37 -4 0 -13 -7 -20 -15z"/>
<path d="M3070 2281 c0 -6 4 -12 8 -15 5 -3 9 1 9 9 0 8 -4 15 -9 15 -4 0 -8
-4 -8 -9z"/>
<path d="M3880 2280 c-12 -7 -10 -9 8 -7 12 0 22 5 22 9 0 11 -12 10 -30 -2z"/>
<path d="M4150 2276 c7 -7 13 -7 20 0 6 6 3 10 -10 10 -13 0 -16 -4 -10 -10z"/>
<path d="M2466 2264 c-5 -14 -4 -15 9 -4 17 14 19 20 6 20 -5 0 -12 -7 -15
-16z"/>
<path d="M2720 2276 c0 -2 7 -7 16 -10 8 -3 12 -2 9 4 -6 10 -25 14 -25 6z"/>
<path d="M2856 2271 c-4 -5 3 -7 14 -4 23 6 26 13 6 13 -8 0 -17 -4 -20 -9z"/>
<path d="M2507 2249 c6 -22 20 -26 20 -4 0 8 -6 16 -13 19 -7 3 -10 -2 -7 -15z"/>
<path d="M3108 2263 c6 -2 9 -10 6 -15 -4 -7 -2 -8 5 -4 13 9 5 26 -12 25 -9
0 -8 -2 1 -6z"/>
<path d="M4125 2262 c-13 -9 -17 -32 -6 -32 5 0 11 9 14 20 6 22 6 22 -8 12z"/>
<path d="M4187 2249 c6 -23 9 -24 16 -5 3 8 0 17 -7 19 -10 4 -12 -1 -9 -14z"/>
<path d="M4468 2263 c7 -3 16 -2 19 1 4 3 -2 6 -13 5 -11 0 -14 -3 -6 -6z"/>
<path d="M2566 2241 c-15 -16 -15 -19 -2 -24 11 -4 13 -1 9 10 -4 10 -2 14 4
10 5 -3 10 0 10 8 0 19 0 19 -21 -4z"/>
<path d="M2650 2251 c-8 -6 -17 -8 -21 -5 -4 2 -11 -1 -15 -7 -5 -8 -3 -9 6
-4 10 6 12 4 7 -8 -4 -11 -2 -14 9 -10 8 3 12 8 10 11 -3 3 2 11 12 18 19 15
14 18 -8 5z"/>
<path d="M2878 2253 c7 -3 16 -2 19 1 4 3 -2 6 -13 5 -11 0 -14 -3 -6 -6z"/>
<path d="M2956 2247 c3 -10 9 -15 12 -12 3 3 0 11 -7 18 -10 9 -11 8 -5 -6z"/>
<path d="M3037 2253 c-12 -12 -7 -21 16 -26 20 -5 20 -5 5 7 -10 7 -15 16 -11
19 3 4 4 7 1 7 -2 0 -8 -3 -11 -7z"/>
<path d="M3915 2250 c6 -9 4 -12 -7 -8 -8 4 -15 1 -15 -7 0 -7 8 -10 19 -7 21
5 23 17 6 28 -7 5 -8 3 -3 -6z"/>
<path d="M3995 2249 c-4 -6 -5 -12 -2 -15 2 -3 7 2 10 11 7 17 1 20 -8 4z"/>
<path d="M4397 2253 c-12 -12 -7 -21 16 -26 20 -5 20 -5 5 7 -10 7 -15 16 -11
19 3 4 4 7 1 7 -2 0 -8 -3 -11 -7z"/>
<path d="M4485 2250 c-16 -7 -17 -9 -3 -9 9 -1 20 4 23 9 7 11 7 11 -20 0z"/>
<path d="M2435 2240 c-3 -5 -1 -10 4 -10 6 0 11 5 11 10 0 6 -2 10 -4 10 -3 0
-8 -4 -11 -10z"/>
<path d="M2696 2242 c-3 -5 1 -9 9 -9 8 0 12 4 9 9 -3 4 -7 8 -9 8 -2 0 -6 -4
-9 -8z"/>
<path d="M2757 2236 c-3 -8 0 -17 7 -19 10 -4 12 1 9 14 -6 23 -9 24 -16 5z"/>
<path d="M2827 2231 c-3 -13 0 -18 7 -15 7 3 13 11 13 19 0 22 -14 18 -20 -4z"/>
<path d="M4014 2239 c-3 -6 -3 -13 0 -16 3 -4 6 -1 6 5 0 6 7 9 15 6 8 -4 15
-4 15 -1 0 11 -30 16 -36 6z"/>
<path d="M4535 2239 c-3 -4 2 -6 10 -5 21 3 28 13 10 13 -9 0 -18 -4 -20 -8z"/>
<path d="M2476 2221 c-3 -5 0 -14 8 -20 10 -9 15 -8 19 3 4 11 1 13 -10 9 -11
-4 -14 -2 -9 5 4 7 5 12 2 12 -3 0 -7 -4 -10 -9z"/>
<path d="M2997 2217 c4 -6 0 -8 -9 -5 -8 4 -15 0 -15 -7 0 -10 5 -11 18 -4 24
12 31 26 14 26 -8 0 -11 -5 -8 -10z"/>
<path d="M3956 2221 c-3 -5 0 -14 8 -20 10 -9 15 -8 19 3 4 11 1 13 -10 9 -11
-4 -14 -2 -9 5 4 7 5 12 2 12 -3 0 -7 -4 -10 -9z"/>
<path d="M4075 2221 c-9 -15 15 -25 28 -12 9 9 7 10 -7 5 -13 -5 -17 -4 -12 4
4 7 5 12 2 12 -3 0 -7 -4 -11 -9z"/>
<path d="M4235 2221 c6 -11 4 -13 -8 -8 -23 9 -21 0 2 -13 15 -7 19 -7 17 5
-1 8 -6 18 -11 22 -4 5 -5 2 0 -6z"/>
<path d="M4356 2218 c5 -7 2 -9 -9 -5 -11 4 -14 2 -10 -9 4 -11 9 -12 19 -3
12 10 11 29 -2 29 -3 0 -2 -5 2 -12z"/>
<path d="M2537 2209 c7 -7 15 -10 18 -7 3 3 -2 9 -12 12 -14 6 -15 5 -6 -5z"/>
<path d="M2677 2213 c-10 -9 -9 -23 1 -23 5 0 9 7 9 15 0 17 -1 18 -10 8z"/>
<path d="M2712 2206 c7 -8 15 -12 17 -11 5 6 -10 25 -20 25 -5 0 -4 -6 3 -14z"/>
<path d="M2874 2209 c-3 -6 1 -18 11 -27 16 -16 17 -16 7 4 -6 12 -8 24 -5 28
3 3 4 6 0 6 -3 0 -9 -5 -13 -11z"/>
<path d="M4133 2214 c4 -4 -1 -12 -10 -19 -13 -9 -13 -14 -3 -20 9 -6 11 -4 5
5 -6 10 -4 12 9 7 9 -4 15 -3 11 2 -3 5 0 11 7 13 7 3 4 7 -7 12 -11 4 -16 4
-12 0z"/>
<path d="M4173 2205 c-3 -9 -3 -18 -1 -21 3 -3 8 4 11 16 6 23 -1 27 -10 5z"/>
<path d="M4519 2218 c-5 -18 -6 -38 -1 -34 7 8 12 36 6 36 -2 0 -4 -1 -5 -2z"/>
<path d="M2593 2195 c0 -8 4 -12 9 -9 4 3 8 9 8 15 0 5 -4 9 -8 9 -5 0 -9 -7
-9 -15z"/>
<path d="M2790 2200 c0 -5 5 -10 10 -10 6 0 10 5 10 10 0 6 -4 10 -10 10 -5 0
-10 -4 -10 -10z"/>
<path d="M2427 2187 c-3 -8 1 -14 8 -14 7 0 11 6 8 14 -3 7 -6 13 -8 13 -2 0
-5 -6 -8 -13z"/>
<path d="M4320 2191 c0 -6 4 -13 10 -16 6 -3 7 1 4 9 -7 18 -14 21 -14 7z"/>
<path d="M4393 2185 c0 -8 4 -15 9 -15 4 0 8 4 8 9 0 6 -4 12 -8 15 -5 3 -9
-1 -9 -9z"/>
<path d="M2558 2183 c7 -3 16 -2 19 1 4 3 -2 6 -13 5 -11 0 -14 -3 -6 -6z"/>
<path d="M2640 2180 c-8 -5 -11 -10 -6 -10 6 0 1 -7 -10 -16 -19 -15 -19 -15
1 -6 11 6 23 9 27 9 3 -1 10 2 15 7 5 6 2 6 -6 1 -11 -6 -13 -4 -8 8 7 20 7
20 -13 7z"/>
<path d="M2763 2182 c-7 -4 -9 -13 -4 -21 6 -9 10 -7 14 8 3 12 4 21 4 21 -1
0 -7 -4 -14 -8z"/>
<path d="M2827 2169 c6 -22 20 -26 20 -4 0 8 -6 16 -13 19 -7 3 -10 -2 -7 -15z"/>
<path d="M4476 2181 c-3 -5 1 -14 8 -20 10 -9 16 -9 21 -1 4 6 3 10 -2 9 -20
-3 -27 2 -13 11 9 6 10 10 3 10 -6 0 -14 -4 -17 -9z"/>
<path d="M4560 2180 c-8 -5 -11 -10 -6 -10 6 0 1 -7 -10 -16 -19 -15 -19 -15
1 -6 11 6 23 9 27 9 3 -1 10 2 15 7 5 6 2 6 -6 1 -11 -6 -13 -4 -8 8 7 20 7
20 -13 7z"/>
<path d="M2491 2173 c-1 -18 13 -23 29 -11 12 8 12 9 -2 5 -9 -3 -19 -1 -22 6
-3 9 -5 9 -5 0z"/>
<path d="M2390 2148 c-12 -22 -12 -22 6 -6 10 10 15 20 12 24 -4 3 -12 -5 -18
-18z"/>
<path d="M2470 2161 c0 -6 4 -13 10 -16 6 -3 7 1 4 9 -7 18 -14 21 -14 7z"/>
<path d="M2693 2155 c0 -7 7 -11 15 -7 10 3 13 1 8 -6 -9 -15 14 -26 27 -13 9
9 7 10 -7 5 -13 -5 -17 -4 -12 4 3 6 -2 15 -12 21 -14 7 -19 6 -19 -4z"/>
<path d="M2920 2160 c-13 -8 -12 -10 3 -10 9 0 17 5 17 10 0 12 -1 12 -20 0z"/>
<path d="M4073 2155 c0 -8 4 -12 9 -9 4 3 8 9 8 15 0 5 -4 9 -8 9 -5 0 -9 -7
-9 -15z"/>
<path d="M4153 2152 c0 -12 5 -22 9 -22 11 0 10 12 -2 30 -7 12 -9 10 -7 -8z"/>
<path d="M4362 2161 c-11 -6 -9 -9 6 -13 15 -4 19 -2 15 8 -6 16 -4 16 -21 5z"/>
<path d="M4599 2158 c-6 -20 -6 -39 0 -42 4 -3 7 6 7 20 0 20 -4 32 -7 22z"/>
<path d="M2435 2141 c-9 -15 15 -25 28 -12 9 9 7 10 -7 5 -13 -5 -17 -4 -12 4
4 7 5 12 2 12 -3 0 -7 -4 -11 -9z"/>
<path d="M4115 2139 c-4 -6 -5 -12 -2 -15 2 -3 7 2 10 11 7 17 1 20 -8 4z"/>
<path d="M2776 2127 c3 -10 9 -15 12 -12 3 3 0 11 -7 18 -10 9 -11 8 -5 -6z"/>
<path d="M2813 2132 c-7 -4 -9 -13 -4 -21 6 -9 10 -7 14 8 3 12 4 21 4 21 -1
0 -7 -4 -14 -8z"/>
<path d="M2664 2118 c-5 -7 -3 -8 6 -3 9 6 12 4 8 -7 -4 -8 -1 -15 7 -15 7 0
10 8 7 19 -5 21 -17 23 -28 6z"/>
<path d="M4195 2121 c-3 -5 -2 -12 3 -15 5 -3 9 1 9 9 0 17 -3 19 -12 6z"/>
<path d="M4326 2121 c-19 -7 -19 -8 0 -13 13 -3 21 0 21 8 0 8 -1 14 -1 13 -1
0 -10 -4 -20 -8z"/>
<path d="M4380 2115 c-11 -13 -10 -14 4 -9 9 3 16 10 16 15 0 13 -6 11 -20 -6z"/>
<path d="M4510 2119 c0 -5 5 -7 10 -4 6 3 10 8 10 11 0 2 -4 4 -10 4 -5 0 -10
-5 -10 -11z"/>
<path d="M2630 2103 c0 -5 5 -15 10 -23 7 -12 9 -10 7 8 -1 19 -17 33 -17 15z"/>
<path d="M4550 2100 c0 -5 5 -10 10 -10 6 0 10 5 10 10 0 6 -4 10 -10 10 -5 0
-10 -4 -10 -10z"/>
<path d="M2365 2080 c-3 -6 1 -7 9 -4 18 7 21 14 7 14 -6 0 -13 -4 -16 -10z"/>
<path d="M2710 2081 c0 -6 4 -13 10 -16 6 -3 7 1 4 9 -7 18 -14 21 -14 7z"/>
<path d="M4347 2071 c-3 -13 0 -18 7 -15 7 3 13 11 13 19 0 22 -14 18 -20 -4z"/>
<path d="M4433 2078 c3 -9 1 -19 -6 -22 -9 -3 -9 -5 0 -5 18 -1 23 13 11 29
-8 12 -9 12 -5 -2z"/>
<path d="M4310 2061 c0 -6 4 -13 10 -16 6 -3 7 1 4 9 -7 18 -14 21 -14 7z"/>
<path d="M4395 2050 c-8 -13 3 -30 18 -30 8 0 7 3 -2 9 -7 5 -10 14 -7 20 4 6
5 11 2 11 -3 0 -8 -4 -11 -10z"/>
<path d="M4541 2044 c0 -11 3 -14 6 -6 3 7 2 16 -1 19 -3 4 -6 -2 -5 -13z"/>
<path d="M2377 2036 c-4 -11 -1 -13 10 -9 12 5 14 3 8 -7 -5 -9 -4 -11 4 -6 9
6 9 11 0 22 -14 17 -16 17 -22 0z"/>
<path d="M4450 2040 c0 -5 9 -8 20 -7 21 1 18 10 -5 13 -8 1 -15 -2 -15 -6z"/>
<path d="M4563 2037 c-3 -5 0 -14 6 -20 9 -9 10 -7 5 7 -5 13 -4 17 4 12 6 -3
13 -3 16 2 3 5 -2 9 -10 9 -8 0 -17 -4 -21 -10z"/>
<path d="M4635 2040 c-3 -5 -1 -10 4 -10 6 0 11 5 11 10 0 6 -2 10 -4 10 -3 0
-8 -4 -11 -10z"/>
<path d="M2337 2006 c-5 -11 -3 -15 5 -10 7 5 9 2 5 -9 -4 -10 -2 -14 7 -11 7
3 13 11 13 19 0 8 -4 12 -8 9 -4 -2 -9 1 -11 8 -3 7 -7 5 -11 -6z"/>
<path d="M4602 2001 c-11 -6 -9 -9 6 -13 15 -4 19 -2 15 8 -6 16 -4 16 -21 5z"/>
<path d="M4450 1991 c0 -6 4 -13 10 -16 6 -3 7 1 4 9 -7 18 -14 21 -14 7z"/>
<path d="M4636 1975 c-9 -26 -7 -32 5 -12 6 10 9 21 6 23 -2 3 -7 -2 -11 -11z"/>
<path d="M2360 1960 c-9 -6 -10 -10 -3 -10 6 0 15 5 18 10 8 12 4 12 -15 0z"/>
<path d="M2397 1952 c4 -10 2 -13 -5 -8 -8 5 -10 1 -5 -10 5 -13 3 -15 -8 -9
-8 5 -11 4 -6 0 14 -16 36 -14 30 3 -4 10 -2 13 5 8 8 -5 10 -1 5 10 -5 13 -3
15 8 9 8 -5 11 -4 6 0 -14 16 -36 14 -30 -3z"/>
<path d="M4556 1951 c-3 -5 1 -11 9 -14 9 -4 12 -1 8 9 -6 16 -10 17 -17 5z"/>
<path d="M4673 1945 c0 -8 4 -12 9 -9 5 3 6 10 3 15 -9 13 -12 11 -12 -6z"/>
<path d="M2319 1938 c-8 -26 -5 -36 9 -31 11 5 13 3 7 -8 -5 -8 -4 -11 0 -6
16 14 14 36 -3 30 -10 -4 -13 -2 -8 5 4 7 5 12 2 12 -3 0 -6 -1 -7 -2z"/>
<path d="M4606 1931 c-17 -6 -17 -8 -4 -14 10 -3 19 0 22 9 3 8 4 14 3 13 -1
0 -11 -4 -21 -8z"/>
</g>
</svg>
